<svg xmlns="http://www.w3.org/2000/svg" xmlns:xlink="http://www.w3.org/1999/xlink" width="1200" zoomAndPan="magnify" viewBox="0 0 900 472.499986" height="630" preserveAspectRatio="xMidYMid meet" version="1.0"><defs><g/><clipPath id="d8e385dd44"><path d="M 0.476562 0 L 899.523438 0 L 899.523438 472 L 0.476562 472 Z M 0.476562 0 " clip-rule="nonzero"/></clipPath><linearGradient x1="0" gradientTransform="matrix(899.048599, 0, 0, 472.000514, 0.475701, 0)" y1="0" x2="1" gradientUnits="userSpaceOnUse" y2="1" id="38fe758351"><stop stop-opacity="1" stop-color="rgb(24.308777%, 51.759338%, 54.899597%)" offset="0"/><stop stop-opacity="1" stop-color="rgb(24.215698%, 51.634216%, 54.772949%)" offset="0.0078125"/><stop stop-opacity="1" stop-color="rgb(24.028015%, 51.387024%, 54.522705%)" offset="0.015625"/><stop stop-opacity="1" stop-color="rgb(23.841858%, 51.138306%, 54.270935%)" offset="0.0234375"/><stop stop-opacity="1" stop-color="rgb(23.654175%, 50.889587%, 54.019165%)" offset="0.03125"/><stop stop-opacity="1" stop-color="rgb(23.468018%, 50.642395%, 53.768921%)" offset="0.0390625"/><stop stop-opacity="1" stop-color="rgb(23.280334%, 50.393677%, 53.517151%)" offset="0.046875"/><stop stop-opacity="1" stop-color="rgb(23.094177%, 50.146484%, 53.266907%)" offset="0.0546875"/><stop stop-opacity="1" stop-color="rgb(22.90802%, 49.897766%, 53.015137%)" offset="0.0625"/><stop stop-opacity="1" stop-color="rgb(22.720337%, 49.649048%, 52.763367%)" offset="0.0703125"/><stop stop-opacity="1" stop-color="rgb(22.53418%, 49.401855%, 52.513123%)" offset="0.078125"/><stop stop-opacity="1" stop-color="rgb(22.346497%, 49.153137%, 52.261353%)" offset="0.0859375"/><stop stop-opacity="1" stop-color="rgb(22.160339%, 48.905945%, 52.009583%)" offset="0.09375"/><stop stop-opacity="1" stop-color="rgb(21.972656%, 48.657227%, 51.759338%)" offset="0.101562"/><stop stop-opacity="1" stop-color="rgb(21.786499%, 48.408508%, 51.507568%)" offset="0.109375"/><stop stop-opacity="1" stop-color="rgb(21.598816%, 48.161316%, 51.257324%)" offset="0.117188"/><stop stop-opacity="1" stop-color="rgb(21.412659%, 47.912598%, 51.005554%)" offset="0.125"/><stop stop-opacity="1" stop-color="rgb(21.224976%, 47.665405%, 50.753784%)" offset="0.132813"/><stop stop-opacity="1" stop-color="rgb(21.038818%, 47.416687%, 50.50354%)" offset="0.140625"/><stop stop-opacity="1" stop-color="rgb(20.851135%, 47.167969%, 50.25177%)" offset="0.148438"/><stop stop-opacity="1" stop-color="rgb(20.664978%, 46.920776%, 50.001526%)" offset="0.15625"/><stop stop-opacity="1" stop-color="rgb(20.477295%, 46.672058%, 49.749756%)" offset="0.164063"/><stop stop-opacity="1" stop-color="rgb(20.291138%, 46.42334%, 49.497986%)" offset="0.171875"/><stop stop-opacity="1" stop-color="rgb(20.103455%, 46.176147%, 49.247742%)" offset="0.179688"/><stop stop-opacity="1" stop-color="rgb(19.917297%, 45.927429%, 48.995972%)" offset="0.1875"/><stop stop-opacity="1" stop-color="rgb(19.73114%, 45.680237%, 48.745728%)" offset="0.195312"/><stop stop-opacity="1" stop-color="rgb(19.543457%, 45.431519%, 48.493958%)" offset="0.203125"/><stop stop-opacity="1" stop-color="rgb(19.3573%, 45.1828%, 48.242188%)" offset="0.210938"/><stop stop-opacity="1" stop-color="rgb(19.169617%, 44.935608%, 47.991943%)" offset="0.21875"/><stop stop-opacity="1" stop-color="rgb(18.983459%, 44.68689%, 47.740173%)" offset="0.226562"/><stop stop-opacity="1" stop-color="rgb(18.795776%, 44.439697%, 47.489929%)" offset="0.234375"/><stop stop-opacity="1" stop-color="rgb(18.609619%, 44.190979%, 47.238159%)" offset="0.242188"/><stop stop-opacity="1" stop-color="rgb(18.421936%, 43.942261%, 46.986389%)" offset="0.25"/><stop stop-opacity="1" stop-color="rgb(18.235779%, 43.695068%, 46.736145%)" offset="0.257813"/><stop stop-opacity="1" stop-color="rgb(18.048096%, 43.44635%, 46.484375%)" offset="0.265625"/><stop stop-opacity="1" stop-color="rgb(17.861938%, 43.199158%, 46.232605%)" offset="0.273438"/><stop stop-opacity="1" stop-color="rgb(17.674255%, 42.950439%, 45.982361%)" offset="0.28125"/><stop stop-opacity="1" stop-color="rgb(17.488098%, 42.701721%, 45.730591%)" offset="0.289063"/><stop stop-opacity="1" stop-color="rgb(17.300415%, 42.454529%, 45.480347%)" offset="0.296875"/><stop stop-opacity="1" stop-color="rgb(17.114258%, 42.205811%, 45.228577%)" offset="0.304688"/><stop stop-opacity="1" stop-color="rgb(16.926575%, 41.957092%, 44.976807%)" offset="0.3125"/><stop stop-opacity="1" stop-color="rgb(16.740417%, 41.7099%, 44.726562%)" offset="0.320313"/><stop stop-opacity="1" stop-color="rgb(16.55426%, 41.461182%, 44.474792%)" offset="0.328125"/><stop stop-opacity="1" stop-color="rgb(16.366577%, 41.213989%, 44.224548%)" offset="0.335938"/><stop stop-opacity="1" stop-color="rgb(16.18042%, 40.965271%, 43.972778%)" offset="0.34375"/><stop stop-opacity="1" stop-color="rgb(15.992737%, 40.716553%, 43.721008%)" offset="0.351563"/><stop stop-opacity="1" stop-color="rgb(15.80658%, 40.46936%, 43.470764%)" offset="0.359375"/><stop stop-opacity="1" stop-color="rgb(15.618896%, 40.220642%, 43.218994%)" offset="0.367188"/><stop stop-opacity="1" stop-color="rgb(15.432739%, 39.97345%, 42.96875%)" offset="0.375"/><stop stop-opacity="1" stop-color="rgb(15.245056%, 39.724731%, 42.71698%)" offset="0.382812"/><stop stop-opacity="1" stop-color="rgb(15.058899%, 39.476013%, 42.46521%)" offset="0.390625"/><stop stop-opacity="1" stop-color="rgb(14.871216%, 39.228821%, 42.214966%)" offset="0.398438"/><stop stop-opacity="1" stop-color="rgb(14.685059%, 38.980103%, 41.963196%)" offset="0.40625"/><stop stop-opacity="1" stop-color="rgb(14.497375%, 38.73291%, 41.712952%)" offset="0.414062"/><stop stop-opacity="1" stop-color="rgb(14.311218%, 38.484192%, 41.461182%)" offset="0.421875"/><stop stop-opacity="1" stop-color="rgb(14.123535%, 38.235474%, 41.209412%)" offset="0.429688"/><stop stop-opacity="1" stop-color="rgb(13.937378%, 37.988281%, 40.959167%)" offset="0.4375"/><stop stop-opacity="1" stop-color="rgb(13.749695%, 37.739563%, 40.707397%)" offset="0.445312"/><stop stop-opacity="1" stop-color="rgb(13.563538%, 37.490845%, 40.457153%)" offset="0.453125"/><stop stop-opacity="1" stop-color="rgb(13.37738%, 37.243652%, 40.205383%)" offset="0.460938"/><stop stop-opacity="1" stop-color="rgb(13.189697%, 36.994934%, 39.953613%)" offset="0.46875"/><stop stop-opacity="1" stop-color="rgb(13.00354%, 36.747742%, 39.703369%)" offset="0.476562"/><stop stop-opacity="1" stop-color="rgb(12.815857%, 36.499023%, 39.451599%)" offset="0.484375"/><stop stop-opacity="1" stop-color="rgb(12.6297%, 36.250305%, 39.199829%)" offset="0.492188"/><stop stop-opacity="1" stop-color="rgb(12.442017%, 36.003113%, 38.949585%)" offset="0.5"/><stop stop-opacity="1" stop-color="rgb(12.348938%, 35.879517%, 38.824463%)" offset="0.5"/><stop stop-opacity="1" stop-color="rgb(12.255859%, 35.754395%, 38.697815%)" offset="0.507812"/><stop stop-opacity="1" stop-color="rgb(12.068176%, 35.507202%, 38.447571%)" offset="0.515625"/><stop stop-opacity="1" stop-color="rgb(11.882019%, 35.258484%, 38.195801%)" offset="0.523438"/><stop stop-opacity="1" stop-color="rgb(11.694336%, 35.009766%, 37.944031%)" offset="0.53125"/><stop stop-opacity="1" stop-color="rgb(11.508179%, 34.762573%, 37.693787%)" offset="0.539063"/><stop stop-opacity="1" stop-color="rgb(11.320496%, 34.513855%, 37.442017%)" offset="0.546875"/><stop stop-opacity="1" stop-color="rgb(11.134338%, 34.266663%, 37.191772%)" offset="0.554688"/><stop stop-opacity="1" stop-color="rgb(10.946655%, 34.017944%, 36.940002%)" offset="0.5625"/><stop stop-opacity="1" stop-color="rgb(10.760498%, 33.769226%, 36.688232%)" offset="0.570313"/><stop stop-opacity="1" stop-color="rgb(10.572815%, 33.522034%, 36.437988%)" offset="0.578125"/><stop stop-opacity="1" stop-color="rgb(10.386658%, 33.273315%, 36.186218%)" offset="0.585938"/><stop stop-opacity="1" stop-color="rgb(10.2005%, 33.024597%, 35.935974%)" offset="0.59375"/><stop stop-opacity="1" stop-color="rgb(10.012817%, 32.777405%, 35.684204%)" offset="0.601563"/><stop stop-opacity="1" stop-color="rgb(9.82666%, 32.528687%, 35.432434%)" offset="0.609375"/><stop stop-opacity="1" stop-color="rgb(9.638977%, 32.281494%, 35.18219%)" offset="0.617188"/><stop stop-opacity="1" stop-color="rgb(9.45282%, 32.032776%, 34.93042%)" offset="0.625"/><stop stop-opacity="1" stop-color="rgb(9.265137%, 31.784058%, 34.680176%)" offset="0.632813"/><stop stop-opacity="1" stop-color="rgb(9.078979%, 31.536865%, 34.428406%)" offset="0.640625"/><stop stop-opacity="1" stop-color="rgb(8.891296%, 31.288147%, 34.176636%)" offset="0.648438"/><stop stop-opacity="1" stop-color="rgb(8.705139%, 31.040955%, 33.926392%)" offset="0.65625"/><stop stop-opacity="1" stop-color="rgb(8.517456%, 30.792236%, 33.674622%)" offset="0.664063"/><stop stop-opacity="1" stop-color="rgb(8.331299%, 30.543518%, 33.422852%)" offset="0.671875"/><stop stop-opacity="1" stop-color="rgb(8.143616%, 30.296326%, 33.172607%)" offset="0.679688"/><stop stop-opacity="1" stop-color="rgb(7.957458%, 30.047607%, 32.920837%)" offset="0.6875"/><stop stop-opacity="1" stop-color="rgb(7.769775%, 29.800415%, 32.670593%)" offset="0.695313"/><stop stop-opacity="1" stop-color="rgb(7.583618%, 29.551697%, 32.418823%)" offset="0.703125"/><stop stop-opacity="1" stop-color="rgb(7.395935%, 29.302979%, 32.167053%)" offset="0.710938"/><stop stop-opacity="1" stop-color="rgb(7.209778%, 29.055786%, 31.916809%)" offset="0.71875"/><stop stop-opacity="1" stop-color="rgb(7.023621%, 28.807068%, 31.665039%)" offset="0.726563"/><stop stop-opacity="1" stop-color="rgb(6.835938%, 28.55835%, 31.414795%)" offset="0.734375"/><stop stop-opacity="1" stop-color="rgb(6.64978%, 28.311157%, 31.163025%)" offset="0.742188"/><stop stop-opacity="1" stop-color="rgb(6.462097%, 28.062439%, 30.911255%)" offset="0.75"/><stop stop-opacity="1" stop-color="rgb(6.27594%, 27.815247%, 30.661011%)" offset="0.757812"/><stop stop-opacity="1" stop-color="rgb(6.088257%, 27.566528%, 30.409241%)" offset="0.765625"/><stop stop-opacity="1" stop-color="rgb(5.9021%, 27.31781%, 30.158997%)" offset="0.773438"/><stop stop-opacity="1" stop-color="rgb(5.714417%, 27.070618%, 29.907227%)" offset="0.78125"/><stop stop-opacity="1" stop-color="rgb(5.528259%, 26.821899%, 29.655457%)" offset="0.789062"/><stop stop-opacity="1" stop-color="rgb(5.340576%, 26.574707%, 29.405212%)" offset="0.796875"/><stop stop-opacity="1" stop-color="rgb(5.154419%, 26.325989%, 29.153442%)" offset="0.804688"/><stop stop-opacity="1" stop-color="rgb(4.966736%, 26.077271%, 28.903198%)" offset="0.8125"/><stop stop-opacity="1" stop-color="rgb(4.780579%, 25.830078%, 28.651428%)" offset="0.820312"/><stop stop-opacity="1" stop-color="rgb(4.592896%, 25.58136%, 28.399658%)" offset="0.828125"/><stop stop-opacity="1" stop-color="rgb(4.406738%, 25.334167%, 28.149414%)" offset="0.835938"/><stop stop-opacity="1" stop-color="rgb(4.219055%, 25.085449%, 27.897644%)" offset="0.84375"/><stop stop-opacity="1" stop-color="rgb(4.032898%, 24.836731%, 27.645874%)" offset="0.851562"/><stop stop-opacity="1" stop-color="rgb(3.846741%, 24.589539%, 27.39563%)" offset="0.859375"/><stop stop-opacity="1" stop-color="rgb(3.659058%, 24.34082%, 27.14386%)" offset="0.867188"/><stop stop-opacity="1" stop-color="rgb(3.4729%, 24.092102%, 26.893616%)" offset="0.875"/><stop stop-opacity="1" stop-color="rgb(3.285217%, 23.84491%, 26.641846%)" offset="0.882812"/><stop stop-opacity="1" stop-color="rgb(3.09906%, 23.596191%, 26.390076%)" offset="0.890625"/><stop stop-opacity="1" stop-color="rgb(2.911377%, 23.348999%, 26.139832%)" offset="0.898438"/><stop stop-opacity="1" stop-color="rgb(2.72522%, 23.100281%, 25.888062%)" offset="0.90625"/><stop stop-opacity="1" stop-color="rgb(2.537537%, 22.851562%, 25.637817%)" offset="0.914062"/><stop stop-opacity="1" stop-color="rgb(2.351379%, 22.60437%, 25.386047%)" offset="0.921875"/><stop stop-opacity="1" stop-color="rgb(2.163696%, 22.355652%, 25.134277%)" offset="0.929688"/><stop stop-opacity="1" stop-color="rgb(1.977539%, 22.108459%, 24.884033%)" offset="0.9375"/><stop stop-opacity="1" stop-color="rgb(1.789856%, 21.859741%, 24.632263%)" offset="0.945312"/><stop stop-opacity="1" stop-color="rgb(1.603699%, 21.611023%, 24.382019%)" offset="0.953125"/><stop stop-opacity="1" stop-color="rgb(1.416016%, 21.363831%, 24.130249%)" offset="0.960938"/><stop stop-opacity="1" stop-color="rgb(1.229858%, 21.115112%, 23.878479%)" offset="0.96875"/><stop stop-opacity="1" stop-color="rgb(1.043701%, 20.86792%, 23.628235%)" offset="0.976562"/><stop stop-opacity="1" stop-color="rgb(0.856018%, 20.619202%, 23.376465%)" offset="0.984375"/><stop stop-opacity="1" stop-color="rgb(0.669861%, 20.370483%, 23.126221%)" offset="0.992188"/><stop stop-opacity="1" stop-color="rgb(0.482178%, 20.123291%, 22.874451%)" offset="1"/></linearGradient><clipPath id="02c7e188be"><path d="M 98.289062 197.207031 L 172.050781 197.207031 L 172.050781 274.792969 L 98.289062 274.792969 Z M 98.289062 197.207031 " clip-rule="nonzero"/></clipPath><clipPath id="2ea1f55ea4"><path d="M 0.289062 0.207031 L 74.050781 0.207031 L 74.050781 77.792969 L 0.289062 77.792969 Z M 0.289062 0.207031 " clip-rule="nonzero"/></clipPath><clipPath id="362f053400"><rect x="0" width="75" y="0" height="78"/></clipPath><clipPath id="ab30ef84fb"><path d="M 90.625 203.148438 L 168.542969 203.148438 L 168.542969 281 L 90.625 281 Z M 90.625 203.148438 " clip-rule="nonzero"/></clipPath></defs><g clip-path="url(#d8e385dd44)"><path fill="#ffffff" d="M 0.476562 0 L 899.523438 0 L 899.523438 472 L 0.476562 472 Z M 0.476562 0 " fill-opacity="1" fill-rule="nonzero"/><path fill="#ffffff" d="M 0.476562 0 L 899.523438 0 L 899.523438 472 L 0.476562 472 Z M 0.476562 0 " fill-opacity="1" fill-rule="nonzero"/><path fill="url(#38fe758351)" d="M 0.476562 0 L 0.476562 472 L 899.523438 472 L 899.523438 0 Z M 0.476562 0 " fill-rule="nonzero"/></g><path fill="#ffffff" d="M 78.394531 59.9375 L 821.605469 59.9375 C 822.195312 59.9375 822.78125 59.964844 823.371094 60.023438 C 823.957031 60.082031 824.535156 60.167969 825.113281 60.28125 C 825.691406 60.398438 826.261719 60.539062 826.828125 60.710938 C 827.390625 60.882812 827.945312 61.078125 828.488281 61.304688 C 829.03125 61.53125 829.5625 61.78125 830.082031 62.058594 C 830.601562 62.335938 831.105469 62.640625 831.597656 62.96875 C 832.085938 63.292969 832.558594 63.644531 833.015625 64.019531 C 833.46875 64.390625 833.90625 64.785156 834.320312 65.203125 C 834.738281 65.621094 835.132812 66.054688 835.507812 66.511719 C 835.878906 66.964844 836.230469 67.4375 836.558594 67.929688 C 836.882812 68.417969 837.1875 68.921875 837.464844 69.441406 C 837.742188 69.960938 837.992188 70.492188 838.21875 71.035156 C 838.445312 71.582031 838.640625 72.132812 838.8125 72.699219 C 838.984375 73.261719 839.128906 73.832031 839.242188 74.410156 C 839.355469 74.988281 839.445312 75.570312 839.5 76.15625 C 839.558594 76.742188 839.585938 77.328125 839.585938 77.917969 L 839.585938 394.082031 C 839.585938 394.671875 839.558594 395.257812 839.5 395.84375 C 839.445312 396.429688 839.355469 397.011719 839.242188 397.589844 C 839.128906 398.167969 838.984375 398.738281 838.8125 399.300781 C 838.640625 399.867188 838.445312 400.417969 838.21875 400.964844 C 837.992188 401.507812 837.742188 402.039062 837.464844 402.558594 C 837.1875 403.078125 836.882812 403.582031 836.558594 404.074219 C 836.230469 404.5625 835.878906 405.035156 835.507812 405.488281 C 835.132812 405.945312 834.738281 406.382812 834.320312 406.796875 C 833.90625 407.214844 833.46875 407.609375 833.015625 407.984375 C 832.558594 408.355469 832.085938 408.707031 831.597656 409.035156 C 831.105469 409.359375 830.601562 409.664062 830.082031 409.941406 C 829.5625 410.21875 829.03125 410.46875 828.488281 410.695312 C 827.945312 410.921875 827.390625 411.117188 826.828125 411.289062 C 826.261719 411.460938 825.691406 411.601562 825.113281 411.71875 C 824.535156 411.832031 823.957031 411.917969 823.371094 411.976562 C 822.78125 412.035156 822.195312 412.0625 821.605469 412.0625 L 78.394531 412.0625 C 77.804688 412.0625 77.21875 412.035156 76.628906 411.976562 C 76.042969 411.917969 75.464844 411.832031 74.886719 411.71875 C 74.308594 411.601562 73.738281 411.460938 73.171875 411.289062 C 72.609375 411.117188 72.054688 410.921875 71.511719 410.695312 C 70.96875 410.46875 70.4375 410.21875 69.917969 409.941406 C 69.398438 409.664062 68.894531 409.359375 68.402344 409.035156 C 67.914062 408.707031 67.441406 408.355469 66.984375 407.984375 C 66.53125 407.609375 66.09375 407.214844 65.679688 406.796875 C 65.261719 406.382812 64.867188 405.945312 64.492188 405.488281 C 64.121094 405.035156 63.769531 404.5625 63.441406 404.074219 C 63.117188 403.582031 62.8125 403.078125 62.535156 402.558594 C 62.257812 402.039062 62.007812 401.507812 61.78125 400.964844 C 61.554688 400.417969 61.359375 399.867188 61.1875 399.300781 C 61.015625 398.738281 60.871094 398.167969 60.757812 397.589844 C 60.644531 397.011719 60.554688 396.429688 60.5 395.84375 C 60.441406 395.257812 60.414062 394.671875 60.414062 394.082031 L 60.414062 77.917969 C 60.414062 77.328125 60.441406 76.742188 60.5 76.15625 C 60.554688 75.570312 60.644531 74.988281 60.757812 74.410156 C 60.871094 73.832031 61.015625 73.261719 61.1875 72.699219 C 61.359375 72.132812 61.554688 71.582031 61.78125 71.035156 C 62.007812 70.492188 62.257812 69.960938 62.535156 69.441406 C 62.8125 68.921875 63.117188 68.417969 63.441406 67.929688 C 63.769531 67.4375 64.121094 66.964844 64.492188 66.511719 C 64.867188 66.054688 65.261719 65.621094 65.679688 65.203125 C 66.09375 64.785156 66.53125 64.390625 66.984375 64.019531 C 67.441406 63.644531 67.914062 63.292969 68.402344 62.96875 C 68.894531 62.640625 69.398438 62.335938 69.917969 62.058594 C 70.4375 61.78125 70.96875 61.53125 71.511719 61.304688 C 72.054688 61.078125 72.609375 60.882812 73.171875 60.710938 C 73.738281 60.539062 74.308594 60.398438 74.886719 60.28125 C 75.464844 60.167969 76.042969 60.082031 76.628906 60.023438 C 77.21875 59.964844 77.804688 59.9375 78.394531 59.9375 Z M 78.394531 59.9375 " fill-opacity="0.08" fill-rule="nonzero"/><path fill="#2aabee" d="M 195.269531 236 C 195.269531 237.964844 195.171875 239.921875 194.980469 241.875 C 194.789062 243.828125 194.5 245.769531 194.117188 247.691406 C 193.734375 249.617188 193.257812 251.519531 192.6875 253.398438 C 192.117188 255.277344 191.457031 257.125 190.707031 258.9375 C 189.957031 260.75 189.117188 262.523438 188.191406 264.253906 C 187.265625 265.984375 186.257812 267.667969 185.167969 269.300781 C 184.078125 270.929688 182.910156 272.507812 181.664062 274.023438 C 180.417969 275.542969 179.101562 276.992188 177.714844 278.382812 C 176.328125 279.769531 174.875 281.085938 173.355469 282.332031 C 171.839844 283.578125 170.265625 284.746094 168.632812 285.835938 C 167 286.925781 165.316406 287.933594 163.585938 288.859375 C 161.855469 289.785156 160.082031 290.625 158.269531 291.375 C 156.457031 292.125 154.609375 292.785156 152.730469 293.355469 C 150.851562 293.925781 148.953125 294.402344 147.027344 294.785156 C 145.101562 295.167969 143.160156 295.457031 141.207031 295.648438 C 139.253906 295.839844 137.296875 295.9375 135.332031 295.9375 C 133.371094 295.9375 131.410156 295.839844 129.457031 295.648438 C 127.503906 295.457031 125.566406 295.167969 123.640625 294.785156 C 121.714844 294.402344 119.8125 293.925781 117.933594 293.355469 C 116.054688 292.785156 114.210938 292.125 112.394531 291.375 C 110.582031 290.625 108.808594 289.785156 107.078125 288.859375 C 105.347656 287.933594 103.667969 286.925781 102.035156 285.835938 C 100.402344 284.746094 98.828125 283.578125 97.308594 282.332031 C 95.792969 281.085938 94.339844 279.769531 92.953125 278.382812 C 91.5625 276.992188 90.246094 275.542969 89 274.023438 C 87.757812 272.507812 86.589844 270.929688 85.496094 269.300781 C 84.40625 267.667969 83.398438 265.984375 82.472656 264.253906 C 81.546875 262.523438 80.710938 260.75 79.957031 258.9375 C 79.207031 257.125 78.546875 255.277344 77.976562 253.398438 C 77.40625 251.519531 76.929688 249.617188 76.546875 247.691406 C 76.164062 245.769531 75.878906 243.828125 75.683594 241.875 C 75.492188 239.921875 75.394531 237.964844 75.394531 236 C 75.394531 234.039062 75.492188 232.078125 75.683594 230.125 C 75.878906 228.171875 76.164062 226.234375 76.546875 224.308594 C 76.929688 222.382812 77.40625 220.480469 77.976562 218.601562 C 78.546875 216.722656 79.207031 214.878906 79.957031 213.0625 C 80.710938 211.25 81.546875 209.476562 82.472656 207.746094 C 83.398438 206.015625 84.40625 204.332031 85.496094 202.703125 C 86.589844 201.070312 87.757812 199.496094 89 197.976562 C 90.246094 196.460938 91.5625 195.007812 92.953125 193.617188 C 94.339844 192.230469 95.792969 190.914062 97.308594 189.667969 C 98.828125 188.421875 100.402344 187.253906 102.035156 186.164062 C 103.667969 185.074219 105.347656 184.066406 107.078125 183.140625 C 108.808594 182.214844 110.582031 181.378906 112.394531 180.625 C 114.210938 179.875 116.054688 179.214844 117.933594 178.644531 C 119.8125 178.074219 121.714844 177.597656 123.640625 177.214844 C 125.566406 176.832031 127.503906 176.542969 129.457031 176.351562 C 131.410156 176.160156 133.371094 176.0625 135.332031 176.0625 C 137.296875 176.0625 139.253906 176.160156 141.207031 176.351562 C 143.160156 176.542969 145.101562 176.832031 147.027344 177.214844 C 148.953125 177.597656 150.851562 178.074219 152.730469 178.644531 C 154.609375 179.214844 156.457031 179.875 158.269531 180.625 C 160.082031 181.378906 161.855469 182.214844 163.585938 183.140625 C 165.316406 184.066406 167 185.074219 168.632812 186.164062 C 170.265625 187.253906 171.839844 188.421875 173.355469 189.667969 C 174.875 190.914062 176.328125 192.230469 177.714844 193.617188 C 179.101562 195.007812 180.417969 196.460938 181.664062 197.976562 C 182.910156 199.496094 184.078125 201.070312 185.167969 202.703125 C 186.257812 204.332031 187.265625 206.015625 188.191406 207.746094 C 189.117188 209.476562 189.957031 211.25 190.707031 213.0625 C 191.457031 214.878906 192.117188 216.722656 192.6875 218.601562 C 193.257812 220.480469 193.734375 222.382812 194.117188 224.308594 C 194.5 226.234375 194.789062 228.171875 194.980469 230.125 C 195.171875 232.078125 195.269531 234.039062 195.269531 236 Z M 195.269531 236 " fill-opacity="1" fill-rule="nonzero"/><path fill="#ffffff" d="M 112.855469 236 L 154.0625 221.015625 L 146.570312 258.476562 L 135.332031 247.238281 L 124.09375 250.984375 Z M 112.855469 236 " fill-opacity="1" fill-rule="nonzero"/><g fill="#ffffff" fill-opacity="1"><g transform="translate(225.237841, 224.76214)"><g><path d="M 3.84375 -30.578125 L 25.140625 -30.578125 L 25.140625 -24.625 L 11.734375 -24.625 L 11.734375 -18.921875 L 24.34375 -18.921875 L 24.34375 -12.96875 L 11.734375 -12.96875 L 11.734375 -5.96875 L 25.578125 -5.96875 L 25.578125 0 L 3.84375 0 Z M 3.84375 -30.578125 "/></g></g><g transform="translate(253.897941, 224.76214)"><g><path d="M 26.59375 -13.96875 L 26.59375 0 L 19.21875 0 L 19.21875 -10.6875 C 19.21875 -12.664062 19.171875 -14.03125 19.078125 -14.78125 C 18.992188 -15.539062 18.84375 -16.097656 18.625 -16.453125 C 18.332031 -16.929688 17.941406 -17.300781 17.453125 -17.5625 C 16.960938 -17.832031 16.398438 -17.96875 15.765625 -17.96875 C 14.242188 -17.96875 13.046875 -17.375 12.171875 -16.1875 C 11.296875 -15.007812 10.859375 -13.375 10.859375 -11.28125 L 10.859375 0 L 3.515625 0 L 3.515625 -22.9375 L 10.859375 -22.9375 L 10.859375 -19.578125 C 11.960938 -20.921875 13.132812 -21.910156 14.375 -22.546875 C 15.625 -23.179688 17 -23.5 18.5 -23.5 C 21.144531 -23.5 23.15625 -22.6875 24.53125 -21.0625 C 25.90625 -19.4375 26.59375 -17.070312 26.59375 -13.96875 Z M 26.59375 -13.96875 "/></g></g><g transform="translate(283.766722, 224.76214)"><g><path d="M 19.140625 -3.890625 C 18.117188 -2.554688 17 -1.570312 15.78125 -0.9375 C 14.570312 -0.3125 13.171875 0 11.578125 0 C 8.773438 0 6.457031 -1.097656 4.625 -3.296875 C 2.800781 -5.503906 1.890625 -8.316406 1.890625 -11.734375 C 1.890625 -15.160156 2.800781 -17.96875 4.625 -20.15625 C 6.457031 -22.351562 8.773438 -23.453125 11.578125 -23.453125 C 13.171875 -23.453125 14.570312 -23.140625 15.78125 -22.515625 C 17 -21.890625 18.117188 -20.898438 19.140625 -19.546875 L 19.140625 -22.9375 L 26.5 -22.9375 L 26.5 -2.3125 C 26.5 1.375 25.332031 4.1875 23 6.125 C 20.675781 8.070312 17.304688 9.046875 12.890625 9.046875 C 11.453125 9.046875 10.0625 8.9375 8.71875 8.71875 C 7.382812 8.507812 6.039062 8.175781 4.6875 7.71875 L 4.6875 2 C 5.96875 2.738281 7.222656 3.289062 8.453125 3.65625 C 9.679688 4.019531 10.921875 4.203125 12.171875 4.203125 C 14.566406 4.203125 16.328125 3.675781 17.453125 2.625 C 18.578125 1.570312 19.140625 -0.0703125 19.140625 -2.3125 Z M 14.296875 -18.171875 C 12.785156 -18.171875 11.601562 -17.609375 10.75 -16.484375 C 9.90625 -15.367188 9.484375 -13.785156 9.484375 -11.734375 C 9.484375 -9.628906 9.890625 -8.035156 10.703125 -6.953125 C 11.523438 -5.867188 12.722656 -5.328125 14.296875 -5.328125 C 15.828125 -5.328125 17.015625 -5.882812 17.859375 -7 C 18.710938 -8.125 19.140625 -9.703125 19.140625 -11.734375 C 19.140625 -13.785156 18.710938 -15.367188 17.859375 -16.484375 C 17.015625 -17.609375 15.828125 -18.171875 14.296875 -18.171875 Z M 14.296875 -18.171875 "/></g></g><g transform="translate(313.799392, 224.76214)"><g><path d="M 3.515625 -31.875 L 10.859375 -31.875 L 10.859375 0 L 3.515625 0 Z M 3.515625 -31.875 "/></g></g><g transform="translate(328.180657, 224.76214)"><g><path d="M 3.515625 -22.9375 L 10.859375 -22.9375 L 10.859375 0 L 3.515625 0 Z M 3.515625 -31.875 L 10.859375 -31.875 L 10.859375 -25.890625 L 3.515625 -25.890625 Z M 3.515625 -31.875 "/></g></g><g transform="translate(342.561922, 224.76214)"><g><path d="M 21.453125 -22.21875 L 21.453125 -16.65625 C 19.878906 -17.3125 18.359375 -17.800781 16.890625 -18.125 C 15.429688 -18.457031 14.054688 -18.625 12.765625 -18.625 C 11.367188 -18.625 10.332031 -18.445312 9.65625 -18.09375 C 8.976562 -17.75 8.640625 -17.210938 8.640625 -16.484375 C 8.640625 -15.898438 8.894531 -15.453125 9.40625 -15.140625 C 9.925781 -14.828125 10.847656 -14.59375 12.171875 -14.4375 L 13.453125 -14.25 C 17.210938 -13.78125 19.738281 -13 21.03125 -11.90625 C 22.332031 -10.8125 22.984375 -9.097656 22.984375 -6.765625 C 22.984375 -4.316406 22.082031 -2.476562 20.28125 -1.25 C 18.476562 -0.0195312 15.785156 0.59375 12.203125 0.59375 C 10.691406 0.59375 9.125 0.472656 7.5 0.234375 C 5.882812 -0.00390625 4.222656 -0.363281 2.515625 -0.84375 L 2.515625 -6.40625 C 3.984375 -5.695312 5.484375 -5.164062 7.015625 -4.8125 C 8.554688 -4.457031 10.117188 -4.28125 11.703125 -4.28125 C 13.128906 -4.28125 14.203125 -4.476562 14.921875 -4.875 C 15.648438 -5.269531 16.015625 -5.859375 16.015625 -6.640625 C 16.015625 -7.296875 15.765625 -7.78125 15.265625 -8.09375 C 14.773438 -8.414062 13.785156 -8.664062 12.296875 -8.84375 L 11 -9.015625 C 7.738281 -9.421875 5.453125 -10.175781 4.140625 -11.28125 C 2.828125 -12.394531 2.171875 -14.078125 2.171875 -16.328125 C 2.171875 -18.753906 3.003906 -20.554688 4.671875 -21.734375 C 6.335938 -22.910156 8.890625 -23.5 12.328125 -23.5 C 13.679688 -23.5 15.101562 -23.394531 16.59375 -23.1875 C 18.082031 -22.976562 19.703125 -22.65625 21.453125 -22.21875 Z M 21.453125 -22.21875 "/></g></g><g transform="translate(367.534518, 224.76214)"><g><path d="M 26.59375 -13.96875 L 26.59375 0 L 19.21875 0 L 19.21875 -10.65625 C 19.21875 -12.65625 19.171875 -14.03125 19.078125 -14.78125 C 18.992188 -15.539062 18.84375 -16.097656 18.625 -16.453125 C 18.332031 -16.929688 17.941406 -17.300781 17.453125 -17.5625 C 16.960938 -17.832031 16.398438 -17.96875 15.765625 -17.96875 C 14.242188 -17.96875 13.046875 -17.375 12.171875 -16.1875 C 11.296875 -15.007812 10.859375 -13.375 10.859375 -11.28125 L 10.859375 0 L 3.515625 0 L 3.515625 -31.875 L 10.859375 -31.875 L 10.859375 -19.578125 C 11.960938 -20.921875 13.132812 -21.910156 14.375 -22.546875 C 15.625 -23.179688 17 -23.5 18.5 -23.5 C 21.144531 -23.5 23.15625 -22.6875 24.53125 -21.0625 C 25.90625 -19.4375 26.59375 -17.070312 26.59375 -13.96875 Z M 26.59375 -13.96875 "/></g></g><g transform="translate(397.403299, 224.76214)"><g/></g><g transform="translate(412.009911, 224.76214)"><g><path d="M 1.46875 -22.9375 L 8.609375 -22.9375 L 12.453125 -7.125 L 16.328125 -22.9375 L 22.453125 -22.9375 L 26.296875 -7.296875 L 30.171875 -22.9375 L 37.296875 -22.9375 L 31.265625 0 L 23.25 0 L 19.375 -15.765625 L 15.53125 0 L 7.515625 0 Z M 1.46875 -22.9375 "/></g></g><g transform="translate(450.769674, 224.76214)"><g><path d="M 3.515625 -22.9375 L 10.859375 -22.9375 L 10.859375 0 L 3.515625 0 Z M 3.515625 -31.875 L 10.859375 -31.875 L 10.859375 -25.890625 L 3.515625 -25.890625 Z M 3.515625 -31.875 "/></g></g><g transform="translate(465.15094, 224.76214)"><g><path d="M 11.53125 -29.453125 L 11.53125 -22.9375 L 19.09375 -22.9375 L 19.09375 -17.703125 L 11.53125 -17.703125 L 11.53125 -7.96875 C 11.53125 -6.90625 11.738281 -6.1875 12.15625 -5.8125 C 12.582031 -5.4375 13.425781 -5.25 14.6875 -5.25 L 18.453125 -5.25 L 18.453125 0 L 12.171875 0 C 9.273438 0 7.222656 -0.601562 6.015625 -1.8125 C 4.804688 -3.019531 4.203125 -5.070312 4.203125 -7.96875 L 4.203125 -17.703125 L 0.546875 -17.703125 L 0.546875 -22.9375 L 4.203125 -22.9375 L 4.203125 -29.453125 Z M 11.53125 -29.453125 "/></g></g><g transform="translate(485.206863, 224.76214)"><g><path d="M 26.59375 -13.96875 L 26.59375 0 L 19.21875 0 L 19.21875 -10.65625 C 19.21875 -12.65625 19.171875 -14.03125 19.078125 -14.78125 C 18.992188 -15.539062 18.84375 -16.097656 18.625 -16.453125 C 18.332031 -16.929688 17.941406 -17.300781 17.453125 -17.5625 C 16.960938 -17.832031 16.398438 -17.96875 15.765625 -17.96875 C 14.242188 -17.96875 13.046875 -17.375 12.171875 -16.1875 C 11.296875 -15.007812 10.859375 -13.375 10.859375 -11.28125 L 10.859375 0 L 3.515625 0 L 3.515625 -31.875 L 10.859375 -31.875 L 10.859375 -19.578125 C 11.960938 -20.921875 13.132812 -21.910156 14.375 -22.546875 C 15.625 -23.179688 17 -23.5 18.5 -23.5 C 21.144531 -23.5 23.15625 -22.6875 24.53125 -21.0625 C 25.90625 -19.4375 26.59375 -17.070312 26.59375 -13.96875 Z M 26.59375 -13.96875 "/></g></g><g transform="translate(515.075644, 224.76214)"><g/></g><g transform="translate(529.682257, 224.76214)"><g><path d="M 17.828125 -25.421875 C 15.421875 -25.421875 13.554688 -24.53125 12.234375 -22.75 C 10.910156 -20.976562 10.25 -18.484375 10.25 -15.265625 C 10.25 -12.054688 10.910156 -9.5625 12.234375 -7.78125 C 13.554688 -6.007812 15.421875 -5.125 17.828125 -5.125 C 20.242188 -5.125 22.113281 -6.007812 23.4375 -7.78125 C 24.757812 -9.5625 25.421875 -12.054688 25.421875 -15.265625 C 25.421875 -18.484375 24.757812 -20.976562 23.4375 -22.75 C 22.113281 -24.53125 20.242188 -25.421875 17.828125 -25.421875 Z M 17.828125 -31.140625 C 22.742188 -31.140625 26.59375 -29.734375 29.375 -26.921875 C 32.15625 -24.109375 33.546875 -20.222656 33.546875 -15.265625 C 33.546875 -10.316406 32.15625 -6.4375 29.375 -3.625 C 26.59375 -0.8125 22.742188 0.59375 17.828125 0.59375 C 12.921875 0.59375 9.070312 -0.8125 6.28125 -3.625 C 3.488281 -6.4375 2.09375 -10.316406 2.09375 -15.265625 C 2.09375 -20.222656 3.488281 -24.109375 6.28125 -26.921875 C 9.070312 -29.734375 12.921875 -31.140625 17.828125 -31.140625 Z M 17.828125 -31.140625 "/></g></g><g transform="translate(565.348614, 224.76214)"><g><path d="M 24.78125 -19.140625 C 25.71875 -20.554688 26.820312 -21.632812 28.09375 -22.375 C 29.375 -23.125 30.78125 -23.5 32.3125 -23.5 C 34.945312 -23.5 36.953125 -22.6875 38.328125 -21.0625 C 39.703125 -19.4375 40.390625 -17.070312 40.390625 -13.96875 L 40.390625 0 L 33.015625 0 L 33.015625 -11.96875 C 33.035156 -12.144531 33.046875 -12.328125 33.046875 -12.515625 C 33.054688 -12.703125 33.0625 -12.972656 33.0625 -13.328125 C 33.0625 -14.953125 32.820312 -16.128906 32.34375 -16.859375 C 31.863281 -17.597656 31.09375 -17.96875 30.03125 -17.96875 C 28.632812 -17.96875 27.554688 -17.394531 26.796875 -16.25 C 26.046875 -15.101562 25.65625 -13.441406 25.625 -11.265625 L 25.625 0 L 18.25 0 L 18.25 -11.96875 C 18.25 -14.5 18.03125 -16.128906 17.59375 -16.859375 C 17.15625 -17.597656 16.378906 -17.96875 15.265625 -17.96875 C 13.859375 -17.96875 12.769531 -17.390625 12 -16.234375 C 11.238281 -15.078125 10.859375 -13.425781 10.859375 -11.28125 L 10.859375 0 L 3.484375 0 L 3.484375 -22.9375 L 10.859375 -22.9375 L 10.859375 -19.578125 C 11.753906 -20.878906 12.785156 -21.859375 13.953125 -22.515625 C 15.128906 -23.171875 16.421875 -23.5 17.828125 -23.5 C 19.410156 -23.5 20.804688 -23.113281 22.015625 -22.34375 C 23.234375 -21.582031 24.15625 -20.515625 24.78125 -19.140625 Z M 24.78125 -19.140625 "/></g></g><g transform="translate(609.066021, 224.76214)"><g><path d="M 13.8125 -10.328125 C 12.28125 -10.328125 11.128906 -10.066406 10.359375 -9.546875 C 9.585938 -9.023438 9.203125 -8.257812 9.203125 -7.25 C 9.203125 -6.320312 9.507812 -5.59375 10.125 -5.0625 C 10.75 -4.539062 11.613281 -4.28125 12.71875 -4.28125 C 14.101562 -4.28125 15.265625 -4.773438 16.203125 -5.765625 C 17.140625 -6.753906 17.609375 -7.992188 17.609375 -9.484375 L 17.609375 -10.328125 Z M 25.015625 -13.09375 L 25.015625 0 L 17.609375 0 L 17.609375 -3.40625 C 16.628906 -2.007812 15.523438 -0.992188 14.296875 -0.359375 C 13.066406 0.273438 11.570312 0.59375 9.8125 0.59375 C 7.4375 0.59375 5.503906 -0.0976562 4.015625 -1.484375 C 2.535156 -2.867188 1.796875 -4.671875 1.796875 -6.890625 C 1.796875 -9.578125 2.722656 -11.546875 4.578125 -12.796875 C 6.429688 -14.054688 9.335938 -14.6875 13.296875 -14.6875 L 17.609375 -14.6875 L 17.609375 -15.265625 C 17.609375 -16.421875 17.148438 -17.269531 16.234375 -17.8125 C 15.328125 -18.351562 13.90625 -18.625 11.96875 -18.625 C 10.394531 -18.625 8.929688 -18.460938 7.578125 -18.140625 C 6.222656 -17.828125 4.96875 -17.359375 3.8125 -16.734375 L 3.8125 -22.328125 C 5.382812 -22.710938 6.960938 -23.003906 8.546875 -23.203125 C 10.128906 -23.398438 11.710938 -23.5 13.296875 -23.5 C 17.429688 -23.5 20.414062 -22.679688 22.25 -21.046875 C 24.09375 -19.410156 25.015625 -16.757812 25.015625 -13.09375 Z M 25.015625 -13.09375 "/></g></g><g transform="translate(637.377856, 224.76214)"><g><path d="M 20.5625 -16.6875 C 19.925781 -16.988281 19.289062 -17.210938 18.65625 -17.359375 C 18.019531 -17.503906 17.378906 -17.578125 16.734375 -17.578125 C 14.847656 -17.578125 13.394531 -16.972656 12.375 -15.765625 C 11.363281 -14.554688 10.859375 -12.820312 10.859375 -10.5625 L 10.859375 0 L 3.515625 0 L 3.515625 -22.9375 L 10.859375 -22.9375 L 10.859375 -19.171875 C 11.796875 -20.671875 12.875 -21.765625 14.09375 -22.453125 C 15.320312 -23.148438 16.789062 -23.5 18.5 -23.5 C 18.738281 -23.5 19.003906 -23.488281 19.296875 -23.46875 C 19.585938 -23.445312 20.003906 -23.398438 20.546875 -23.328125 Z M 20.5625 -16.6875 "/></g></g></g><g fill="#cfedef" fill-opacity="1"><g transform="translate(225.237841, 269.714568)"><g><path d="M -0.0625 -15.296875 L 12.875 -15.296875 L 12.875 -13.5625 L 7.453125 -13.5625 L 7.453125 0 L 5.375 0 L 5.375 -13.5625 L -0.0625 -13.5625 Z M -0.0625 -15.296875 "/></g></g></g><g fill="#cfedef" fill-opacity="1"><g transform="translate(234.48733, 269.714568)"><g><path d="M 11.796875 -6.203125 L 11.796875 -5.28125 L 3.125 -5.28125 C 3.207031 -3.988281 3.597656 -3 4.296875 -2.3125 C 4.992188 -1.632812 5.96875 -1.296875 7.21875 -1.296875 C 7.945312 -1.296875 8.648438 -1.382812 9.328125 -1.5625 C 10.003906 -1.738281 10.679688 -2.003906 11.359375 -2.359375 L 11.359375 -0.578125 C 10.679688 -0.296875 9.984375 -0.0820312 9.265625 0.0625 C 8.554688 0.21875 7.835938 0.296875 7.109375 0.296875 C 5.273438 0.296875 3.820312 -0.234375 2.75 -1.296875 C 1.6875 -2.367188 1.15625 -3.8125 1.15625 -5.625 C 1.15625 -7.5 1.660156 -8.988281 2.671875 -10.09375 C 3.691406 -11.195312 5.0625 -11.75 6.78125 -11.75 C 8.320312 -11.75 9.539062 -11.25 10.4375 -10.25 C 11.34375 -9.257812 11.796875 -7.910156 11.796875 -6.203125 Z M 9.90625 -6.765625 C 9.894531 -7.796875 9.609375 -8.617188 9.046875 -9.234375 C 8.484375 -9.847656 7.734375 -10.15625 6.796875 -10.15625 C 5.742188 -10.15625 4.898438 -9.859375 4.265625 -9.265625 C 3.640625 -8.671875 3.28125 -7.832031 3.1875 -6.75 Z M 9.90625 -6.765625 "/></g></g><g transform="translate(247.393593, 269.714568)"><g><path d="M 1.984375 -15.9375 L 3.859375 -15.9375 L 3.859375 0 L 1.984375 0 Z M 1.984375 -15.9375 "/></g></g><g transform="translate(253.221898, 269.714568)"><g><path d="M 11.796875 -6.203125 L 11.796875 -5.28125 L 3.125 -5.28125 C 3.207031 -3.988281 3.597656 -3 4.296875 -2.3125 C 4.992188 -1.632812 5.96875 -1.296875 7.21875 -1.296875 C 7.945312 -1.296875 8.648438 -1.382812 9.328125 -1.5625 C 10.003906 -1.738281 10.679688 -2.003906 11.359375 -2.359375 L 11.359375 -0.578125 C 10.679688 -0.296875 9.984375 -0.0820312 9.265625 0.0625 C 8.554688 0.21875 7.835938 0.296875 7.109375 0.296875 C 5.273438 0.296875 3.820312 -0.234375 2.75 -1.296875 C 1.6875 -2.367188 1.15625 -3.8125 1.15625 -5.625 C 1.15625 -7.5 1.660156 -8.988281 2.671875 -10.09375 C 3.691406 -11.195312 5.0625 -11.75 6.78125 -11.75 C 8.320312 -11.75 9.539062 -11.25 10.4375 -10.25 C 11.34375 -9.257812 11.796875 -7.910156 11.796875 -6.203125 Z M 9.90625 -6.765625 C 9.894531 -7.796875 9.609375 -8.617188 9.046875 -9.234375 C 8.484375 -9.847656 7.734375 -10.15625 6.796875 -10.15625 C 5.742188 -10.15625 4.898438 -9.859375 4.265625 -9.265625 C 3.640625 -8.671875 3.28125 -7.832031 3.1875 -6.75 Z M 9.90625 -6.765625 "/></g></g><g transform="translate(266.128162, 269.714568)"><g><path d="M 9.53125 -5.875 C 9.53125 -7.238281 9.25 -8.296875 8.6875 -9.046875 C 8.125 -9.796875 7.332031 -10.171875 6.3125 -10.171875 C 5.300781 -10.171875 4.515625 -9.796875 3.953125 -9.046875 C 3.390625 -8.296875 3.109375 -7.238281 3.109375 -5.875 C 3.109375 -4.507812 3.390625 -3.453125 3.953125 -2.703125 C 4.515625 -1.953125 5.300781 -1.578125 6.3125 -1.578125 C 7.332031 -1.578125 8.125 -1.953125 8.6875 -2.703125 C 9.25 -3.453125 9.53125 -4.507812 9.53125 -5.875 Z M 11.421875 -1.421875 C 11.421875 0.523438 10.984375 1.972656 10.109375 2.921875 C 9.242188 3.878906 7.914062 4.359375 6.125 4.359375 C 5.46875 4.359375 4.84375 4.304688 4.25 4.203125 C 3.664062 4.109375 3.097656 3.960938 2.546875 3.765625 L 2.546875 1.921875 C 3.097656 2.222656 3.640625 2.445312 4.171875 2.59375 C 4.710938 2.738281 5.265625 2.8125 5.828125 2.8125 C 7.066406 2.8125 7.992188 2.488281 8.609375 1.84375 C 9.222656 1.195312 9.53125 0.21875 9.53125 -1.09375 L 9.53125 -2.015625 C 9.132812 -1.335938 8.632812 -0.832031 8.03125 -0.5 C 7.425781 -0.164062 6.695312 0 5.84375 0 C 4.4375 0 3.300781 -0.535156 2.4375 -1.609375 C 1.582031 -2.679688 1.15625 -4.101562 1.15625 -5.875 C 1.15625 -7.644531 1.582031 -9.066406 2.4375 -10.140625 C 3.300781 -11.210938 4.4375 -11.75 5.84375 -11.75 C 6.695312 -11.75 7.425781 -11.582031 8.03125 -11.25 C 8.632812 -10.914062 9.132812 -10.410156 9.53125 -9.734375 L 9.53125 -11.46875 L 11.421875 -11.46875 Z M 11.421875 -1.421875 "/></g></g><g transform="translate(279.444148, 269.714568)"><g><path d="M 8.625 -9.71875 C 8.414062 -9.832031 8.1875 -9.921875 7.9375 -9.984375 C 7.6875 -10.046875 7.410156 -10.078125 7.109375 -10.078125 C 6.046875 -10.078125 5.226562 -9.726562 4.65625 -9.03125 C 4.082031 -8.332031 3.796875 -7.335938 3.796875 -6.046875 L 3.796875 0 L 1.90625 0 L 1.90625 -11.46875 L 3.796875 -11.46875 L 3.796875 -9.6875 C 4.191406 -10.382812 4.707031 -10.898438 5.34375 -11.234375 C 5.976562 -11.578125 6.753906 -11.75 7.671875 -11.75 C 7.796875 -11.75 7.9375 -11.738281 8.09375 -11.71875 C 8.25 -11.707031 8.421875 -11.6875 8.609375 -11.65625 Z M 8.625 -9.71875 "/></g></g><g transform="translate(288.06881, 269.714568)"><g><path d="M 7.1875 -5.765625 C 5.664062 -5.765625 4.609375 -5.585938 4.015625 -5.234375 C 3.429688 -4.890625 3.140625 -4.300781 3.140625 -3.46875 C 3.140625 -2.789062 3.359375 -2.253906 3.796875 -1.859375 C 4.242188 -1.472656 4.847656 -1.28125 5.609375 -1.28125 C 6.648438 -1.28125 7.484375 -1.648438 8.109375 -2.390625 C 8.742188 -3.128906 9.0625 -4.113281 9.0625 -5.34375 L 9.0625 -5.765625 Z M 10.953125 -6.546875 L 10.953125 0 L 9.0625 0 L 9.0625 -1.734375 C 8.632812 -1.046875 8.097656 -0.535156 7.453125 -0.203125 C 6.816406 0.128906 6.035156 0.296875 5.109375 0.296875 C 3.929688 0.296875 2.992188 -0.03125 2.296875 -0.6875 C 1.609375 -1.351562 1.265625 -2.238281 1.265625 -3.34375 C 1.265625 -4.632812 1.695312 -5.609375 2.5625 -6.265625 C 3.425781 -6.921875 4.710938 -7.25 6.421875 -7.25 L 9.0625 -7.25 L 9.0625 -7.421875 C 9.0625 -8.296875 8.773438 -8.96875 8.203125 -9.4375 C 7.640625 -9.914062 6.84375 -10.15625 5.8125 -10.15625 C 5.15625 -10.15625 4.515625 -10.078125 3.890625 -9.921875 C 3.273438 -9.765625 2.675781 -9.53125 2.09375 -9.21875 L 2.09375 -10.953125 C 2.789062 -11.222656 3.460938 -11.421875 4.109375 -11.546875 C 4.753906 -11.679688 5.382812 -11.75 6 -11.75 C 7.664062 -11.75 8.90625 -11.316406 9.71875 -10.453125 C 10.539062 -9.597656 10.953125 -8.296875 10.953125 -6.546875 Z M 10.953125 -6.546875 "/></g></g><g transform="translate(300.923858, 269.714568)"><g><path d="M 10.90625 -9.265625 C 11.382812 -10.117188 11.953125 -10.742188 12.609375 -11.140625 C 13.265625 -11.546875 14.035156 -11.75 14.921875 -11.75 C 16.117188 -11.75 17.039062 -11.328125 17.6875 -10.484375 C 18.332031 -9.648438 18.65625 -8.460938 18.65625 -6.921875 L 18.65625 0 L 16.765625 0 L 16.765625 -6.859375 C 16.765625 -7.960938 16.566406 -8.78125 16.171875 -9.3125 C 15.785156 -9.84375 15.191406 -10.109375 14.390625 -10.109375 C 13.421875 -10.109375 12.648438 -9.785156 12.078125 -9.140625 C 11.515625 -8.492188 11.234375 -7.609375 11.234375 -6.484375 L 11.234375 0 L 9.328125 0 L 9.328125 -6.859375 C 9.328125 -7.972656 9.132812 -8.789062 8.75 -9.3125 C 8.363281 -9.84375 7.765625 -10.109375 6.953125 -10.109375 C 5.984375 -10.109375 5.210938 -9.78125 4.640625 -9.125 C 4.078125 -8.476562 3.796875 -7.597656 3.796875 -6.484375 L 3.796875 0 L 1.90625 0 L 1.90625 -11.46875 L 3.796875 -11.46875 L 3.796875 -9.6875 C 4.234375 -10.394531 4.75 -10.914062 5.34375 -11.25 C 5.945312 -11.582031 6.660156 -11.75 7.484375 -11.75 C 8.316406 -11.75 9.023438 -11.535156 9.609375 -11.109375 C 10.203125 -10.691406 10.632812 -10.078125 10.90625 -9.265625 Z M 10.90625 -9.265625 "/></g></g><g transform="translate(321.358775, 269.714568)"><g/></g><g transform="translate(328.027011, 269.714568)"><g><path d="M 11.234375 -14.796875 L 11.234375 -12.78125 C 10.441406 -13.15625 9.695312 -13.429688 9 -13.609375 C 8.3125 -13.796875 7.640625 -13.890625 6.984375 -13.890625 C 5.859375 -13.890625 4.988281 -13.671875 4.375 -13.234375 C 3.769531 -12.796875 3.46875 -12.175781 3.46875 -11.375 C 3.46875 -10.695312 3.671875 -10.1875 4.078125 -9.84375 C 4.484375 -9.5 5.253906 -9.21875 6.390625 -9 L 7.640625 -8.75 C 9.179688 -8.457031 10.316406 -7.941406 11.046875 -7.203125 C 11.785156 -6.460938 12.15625 -5.46875 12.15625 -4.21875 C 12.15625 -2.738281 11.65625 -1.613281 10.65625 -0.84375 C 9.664062 -0.0820312 8.210938 0.296875 6.296875 0.296875 C 5.566406 0.296875 4.789062 0.210938 3.96875 0.046875 C 3.15625 -0.109375 2.3125 -0.347656 1.4375 -0.671875 L 1.4375 -2.8125 C 2.28125 -2.332031 3.101562 -1.972656 3.90625 -1.734375 C 4.71875 -1.503906 5.515625 -1.390625 6.296875 -1.390625 C 7.472656 -1.390625 8.378906 -1.617188 9.015625 -2.078125 C 9.660156 -2.546875 9.984375 -3.207031 9.984375 -4.0625 C 9.984375 -4.8125 9.753906 -5.398438 9.296875 -5.828125 C 8.835938 -6.253906 8.082031 -6.570312 7.03125 -6.78125 L 5.765625 -7.03125 C 4.222656 -7.332031 3.109375 -7.8125 2.421875 -8.46875 C 1.734375 -9.125 1.390625 -10.035156 1.390625 -11.203125 C 1.390625 -12.554688 1.863281 -13.625 2.8125 -14.40625 C 3.757812 -15.1875 5.070312 -15.578125 6.75 -15.578125 C 7.46875 -15.578125 8.195312 -15.507812 8.9375 -15.375 C 9.6875 -15.25 10.453125 -15.054688 11.234375 -14.796875 Z M 11.234375 -14.796875 "/></g></g><g transform="translate(341.342998, 269.714568)"><g><path d="M 3.84375 -14.734375 L 3.84375 -11.46875 L 7.71875 -11.46875 L 7.71875 -10.015625 L 3.84375 -10.015625 L 3.84375 -3.78125 C 3.84375 -2.84375 3.96875 -2.238281 4.21875 -1.96875 C 4.476562 -1.707031 5.003906 -1.578125 5.796875 -1.578125 L 7.71875 -1.578125 L 7.71875 0 L 5.796875 0 C 4.335938 0 3.332031 -0.269531 2.78125 -0.8125 C 2.226562 -1.351562 1.953125 -2.34375 1.953125 -3.78125 L 1.953125 -10.015625 L 0.5625 -10.015625 L 0.5625 -11.46875 L 1.953125 -11.46875 L 1.953125 -14.734375 Z M 3.84375 -14.734375 "/></g></g><g transform="translate(349.56818, 269.714568)"><g><path d="M 1.78125 -4.53125 L 1.78125 -11.46875 L 3.671875 -11.46875 L 3.671875 -4.59375 C 3.671875 -3.507812 3.878906 -2.695312 4.296875 -2.15625 C 4.722656 -1.613281 5.359375 -1.34375 6.203125 -1.34375 C 7.222656 -1.34375 8.03125 -1.664062 8.625 -2.3125 C 9.21875 -2.957031 9.515625 -3.84375 9.515625 -4.96875 L 9.515625 -11.46875 L 11.390625 -11.46875 L 11.390625 0 L 9.515625 0 L 9.515625 -1.765625 C 9.054688 -1.066406 8.523438 -0.546875 7.921875 -0.203125 C 7.316406 0.128906 6.613281 0.296875 5.8125 0.296875 C 4.488281 0.296875 3.484375 -0.109375 2.796875 -0.921875 C 2.117188 -1.742188 1.78125 -2.945312 1.78125 -4.53125 Z M 1.78125 -4.53125 "/></g></g><g transform="translate(362.86368, 269.714568)"><g><path d="M 9.53125 -9.734375 L 9.53125 -15.9375 L 11.421875 -15.9375 L 11.421875 0 L 9.53125 0 L 9.53125 -1.71875 C 9.132812 -1.039062 8.632812 -0.535156 8.03125 -0.203125 C 7.425781 0.128906 6.695312 0.296875 5.84375 0.296875 C 4.457031 0.296875 3.328125 -0.253906 2.453125 -1.359375 C 1.585938 -2.460938 1.15625 -3.921875 1.15625 -5.734375 C 1.15625 -7.535156 1.585938 -8.988281 2.453125 -10.09375 C 3.328125 -11.195312 4.457031 -11.75 5.84375 -11.75 C 6.695312 -11.75 7.425781 -11.582031 8.03125 -11.25 C 8.632812 -10.925781 9.132812 -10.421875 9.53125 -9.734375 Z M 3.109375 -5.734375 C 3.109375 -4.335938 3.390625 -3.242188 3.953125 -2.453125 C 4.523438 -1.671875 5.3125 -1.28125 6.3125 -1.28125 C 7.3125 -1.28125 8.097656 -1.671875 8.671875 -2.453125 C 9.242188 -3.242188 9.53125 -4.335938 9.53125 -5.734375 C 9.53125 -7.117188 9.242188 -8.203125 8.671875 -8.984375 C 8.097656 -9.773438 7.3125 -10.171875 6.3125 -10.171875 C 5.3125 -10.171875 4.523438 -9.773438 3.953125 -8.984375 C 3.390625 -8.203125 3.109375 -7.117188 3.109375 -5.734375 Z M 3.109375 -5.734375 "/></g></g><g transform="translate(376.179666, 269.714568)"><g><path d="M 6.75 1.0625 C 6.21875 2.425781 5.695312 3.316406 5.1875 3.734375 C 4.6875 4.148438 4.015625 4.359375 3.171875 4.359375 L 1.65625 4.359375 L 1.65625 2.78125 L 2.765625 2.78125 C 3.285156 2.78125 3.6875 2.65625 3.96875 2.40625 C 4.257812 2.164062 4.578125 1.585938 4.921875 0.671875 L 5.265625 -0.1875 L 0.625 -11.46875 L 2.625 -11.46875 L 6.203125 -2.5 L 9.796875 -11.46875 L 11.796875 -11.46875 Z M 6.75 1.0625 "/></g></g><g transform="translate(388.594262, 269.714568)"><g/></g><g transform="translate(395.262499, 269.714568)"><g><path d="M 13.515625 -14.125 L 13.515625 -11.9375 C 12.816406 -12.582031 12.070312 -13.066406 11.28125 -13.390625 C 10.5 -13.710938 9.660156 -13.875 8.765625 -13.875 C 7.015625 -13.875 5.675781 -13.335938 4.75 -12.265625 C 3.820312 -11.203125 3.359375 -9.660156 3.359375 -7.640625 C 3.359375 -5.617188 3.820312 -4.070312 4.75 -3 C 5.675781 -1.9375 7.015625 -1.40625 8.765625 -1.40625 C 9.660156 -1.40625 10.5 -1.5625 11.28125 -1.875 C 12.070312 -2.195312 12.816406 -2.6875 13.515625 -3.34375 L 13.515625 -1.171875 C 12.785156 -0.679688 12.015625 -0.3125 11.203125 -0.0625 C 10.398438 0.175781 9.546875 0.296875 8.640625 0.296875 C 6.328125 0.296875 4.503906 -0.410156 3.171875 -1.828125 C 1.835938 -3.242188 1.171875 -5.179688 1.171875 -7.640625 C 1.171875 -10.097656 1.835938 -12.035156 3.171875 -13.453125 C 4.503906 -14.867188 6.328125 -15.578125 8.640625 -15.578125 C 9.554688 -15.578125 10.421875 -15.453125 11.234375 -15.203125 C 12.046875 -14.960938 12.804688 -14.601562 13.515625 -14.125 Z M 13.515625 -14.125 "/></g></g><g transform="translate(409.910083, 269.714568)"><g><path d="M 6.421875 -10.15625 C 5.410156 -10.15625 4.609375 -9.757812 4.015625 -8.96875 C 3.429688 -8.175781 3.140625 -7.097656 3.140625 -5.734375 C 3.140625 -4.359375 3.429688 -3.273438 4.015625 -2.484375 C 4.597656 -1.691406 5.398438 -1.296875 6.421875 -1.296875 C 7.429688 -1.296875 8.226562 -1.691406 8.8125 -2.484375 C 9.394531 -3.273438 9.6875 -4.359375 9.6875 -5.734375 C 9.6875 -7.085938 9.394531 -8.160156 8.8125 -8.953125 C 8.226562 -9.753906 7.429688 -10.15625 6.421875 -10.15625 Z M 6.421875 -11.75 C 8.066406 -11.75 9.351562 -11.21875 10.28125 -10.15625 C 11.21875 -9.09375 11.6875 -7.617188 11.6875 -5.734375 C 11.6875 -3.847656 11.21875 -2.367188 10.28125 -1.296875 C 9.351562 -0.234375 8.066406 0.296875 6.421875 0.296875 C 4.773438 0.296875 3.484375 -0.234375 2.546875 -1.296875 C 1.617188 -2.367188 1.15625 -3.847656 1.15625 -5.734375 C 1.15625 -7.617188 1.617188 -9.09375 2.546875 -10.15625 C 3.484375 -11.21875 4.773438 -11.75 6.421875 -11.75 Z M 6.421875 -11.75 "/></g></g><g transform="translate(422.744645, 269.714568)"><g><path d="M 10.90625 -9.265625 C 11.382812 -10.117188 11.953125 -10.742188 12.609375 -11.140625 C 13.265625 -11.546875 14.035156 -11.75 14.921875 -11.75 C 16.117188 -11.75 17.039062 -11.328125 17.6875 -10.484375 C 18.332031 -9.648438 18.65625 -8.460938 18.65625 -6.921875 L 18.65625 0 L 16.765625 0 L 16.765625 -6.859375 C 16.765625 -7.960938 16.566406 -8.78125 16.171875 -9.3125 C 15.785156 -9.84375 15.191406 -10.109375 14.390625 -10.109375 C 13.421875 -10.109375 12.648438 -9.785156 12.078125 -9.140625 C 11.515625 -8.492188 11.234375 -7.609375 11.234375 -6.484375 L 11.234375 0 L 9.328125 0 L 9.328125 -6.859375 C 9.328125 -7.972656 9.132812 -8.789062 8.75 -9.3125 C 8.363281 -9.84375 7.765625 -10.109375 6.953125 -10.109375 C 5.984375 -10.109375 5.210938 -9.78125 4.640625 -9.125 C 4.078125 -8.476562 3.796875 -7.597656 3.796875 -6.484375 L 3.796875 0 L 1.90625 0 L 1.90625 -11.46875 L 3.796875 -11.46875 L 3.796875 -9.6875 C 4.234375 -10.394531 4.75 -10.914062 5.34375 -11.25 C 5.945312 -11.582031 6.660156 -11.75 7.484375 -11.75 C 8.316406 -11.75 9.023438 -11.535156 9.609375 -11.109375 C 10.203125 -10.691406 10.632812 -10.078125 10.90625 -9.265625 Z M 10.90625 -9.265625 "/></g></g><g transform="translate(443.179563, 269.714568)"><g><path d="M 10.90625 -9.265625 C 11.382812 -10.117188 11.953125 -10.742188 12.609375 -11.140625 C 13.265625 -11.546875 14.035156 -11.75 14.921875 -11.75 C 16.117188 -11.75 17.039062 -11.328125 17.6875 -10.484375 C 18.332031 -9.648438 18.65625 -8.460938 18.65625 -6.921875 L 18.65625 0 L 16.765625 0 L 16.765625 -6.859375 C 16.765625 -7.960938 16.566406 -8.78125 16.171875 -9.3125 C 15.785156 -9.84375 15.191406 -10.109375 14.390625 -10.109375 C 13.421875 -10.109375 12.648438 -9.785156 12.078125 -9.140625 C 11.515625 -8.492188 11.234375 -7.609375 11.234375 -6.484375 L 11.234375 0 L 9.328125 0 L 9.328125 -6.859375 C 9.328125 -7.972656 9.132812 -8.789062 8.75 -9.3125 C 8.363281 -9.84375 7.765625 -10.109375 6.953125 -10.109375 C 5.984375 -10.109375 5.210938 -9.78125 4.640625 -9.125 C 4.078125 -8.476562 3.796875 -7.597656 3.796875 -6.484375 L 3.796875 0 L 1.90625 0 L 1.90625 -11.46875 L 3.796875 -11.46875 L 3.796875 -9.6875 C 4.234375 -10.394531 4.75 -10.914062 5.34375 -11.25 C 5.945312 -11.582031 6.660156 -11.75 7.484375 -11.75 C 8.316406 -11.75 9.023438 -11.535156 9.609375 -11.109375 C 10.203125 -10.691406 10.632812 -10.078125 10.90625 -9.265625 Z M 10.90625 -9.265625 "/></g></g><g transform="translate(463.61448, 269.714568)"><g><path d="M 1.78125 -4.53125 L 1.78125 -11.46875 L 3.671875 -11.46875 L 3.671875 -4.59375 C 3.671875 -3.507812 3.878906 -2.695312 4.296875 -2.15625 C 4.722656 -1.613281 5.359375 -1.34375 6.203125 -1.34375 C 7.222656 -1.34375 8.03125 -1.664062 8.625 -2.3125 C 9.21875 -2.957031 9.515625 -3.84375 9.515625 -4.96875 L 9.515625 -11.46875 L 11.390625 -11.46875 L 11.390625 0 L 9.515625 0 L 9.515625 -1.765625 C 9.054688 -1.066406 8.523438 -0.546875 7.921875 -0.203125 C 7.316406 0.128906 6.613281 0.296875 5.8125 0.296875 C 4.488281 0.296875 3.484375 -0.109375 2.796875 -0.921875 C 2.117188 -1.742188 1.78125 -2.945312 1.78125 -4.53125 Z M 1.78125 -4.53125 "/></g></g><g transform="translate(476.90998, 269.714568)"><g><path d="M 11.515625 -6.921875 L 11.515625 0 L 9.625 0 L 9.625 -6.859375 C 9.625 -7.953125 9.410156 -8.765625 8.984375 -9.296875 C 8.566406 -9.835938 7.9375 -10.109375 7.09375 -10.109375 C 6.070312 -10.109375 5.265625 -9.785156 4.671875 -9.140625 C 4.085938 -8.492188 3.796875 -7.609375 3.796875 -6.484375 L 3.796875 0 L 1.90625 0 L 1.90625 -11.46875 L 3.796875 -11.46875 L 3.796875 -9.6875 C 4.253906 -10.382812 4.785156 -10.898438 5.390625 -11.234375 C 6.003906 -11.578125 6.710938 -11.75 7.515625 -11.75 C 8.828125 -11.75 9.820312 -11.335938 10.5 -10.515625 C 11.175781 -9.703125 11.515625 -8.503906 11.515625 -6.921875 Z M 11.515625 -6.921875 "/></g></g><g transform="translate(490.20548, 269.714568)"><g><path d="M 1.984375 -11.46875 L 3.859375 -11.46875 L 3.859375 0 L 1.984375 0 Z M 1.984375 -15.9375 L 3.859375 -15.9375 L 3.859375 -13.5625 L 1.984375 -13.5625 Z M 1.984375 -15.9375 "/></g></g><g transform="translate(496.033785, 269.714568)"><g><path d="M 3.84375 -14.734375 L 3.84375 -11.46875 L 7.71875 -11.46875 L 7.71875 -10.015625 L 3.84375 -10.015625 L 3.84375 -3.78125 C 3.84375 -2.84375 3.96875 -2.238281 4.21875 -1.96875 C 4.476562 -1.707031 5.003906 -1.578125 5.796875 -1.578125 L 7.71875 -1.578125 L 7.71875 0 L 5.796875 0 C 4.335938 0 3.332031 -0.269531 2.78125 -0.8125 C 2.226562 -1.351562 1.953125 -2.34375 1.953125 -3.78125 L 1.953125 -10.015625 L 0.5625 -10.015625 L 0.5625 -11.46875 L 1.953125 -11.46875 L 1.953125 -14.734375 Z M 3.84375 -14.734375 "/></g></g><g transform="translate(504.258967, 269.714568)"><g><path d="M 6.75 1.0625 C 6.21875 2.425781 5.695312 3.316406 5.1875 3.734375 C 4.6875 4.148438 4.015625 4.359375 3.171875 4.359375 L 1.65625 4.359375 L 1.65625 2.78125 L 2.765625 2.78125 C 3.285156 2.78125 3.6875 2.65625 3.96875 2.40625 C 4.257812 2.164062 4.578125 1.585938 4.921875 0.671875 L 5.265625 -0.1875 L 0.625 -11.46875 L 2.625 -11.46875 L 6.203125 -2.5 L 9.796875 -11.46875 L 11.796875 -11.46875 Z M 6.75 1.0625 "/></g></g></g><g clip-path="url(#02c7e188be)"><g transform="matrix(1, 0, 0, 1, 98, 197)"><g clip-path="url(#362f053400)"><g clip-path="url(#2ea1f55ea4)"><path fill="#2aabee" d="M 0.289062 0.207031 L 74.050781 0.207031 L 74.050781 77.714844 L 0.289062 77.714844 Z M 0.289062 0.207031 " fill-opacity="1" fill-rule="nonzero"/></g></g></g></g><g clip-path="url(#ab30ef84fb)"><path fill="#ffffff" d="M 138.652344 232.640625 C 138.367188 232.800781 138.078125 232.953125 137.796875 233.121094 C 133.304688 235.8125 128.800781 238.484375 124.332031 241.214844 C 122.820312 242.136719 121.296875 242.367188 119.59375 241.914062 C 110.667969 239.546875 101.738281 237.1875 92.808594 234.84375 C 91.441406 234.484375 90.722656 233.667969 90.679688 232.484375 C 90.632812 231.296875 91.292969 230.421875 92.597656 229.945312 C 113.703125 222.210938 134.804688 214.476562 155.910156 206.746094 C 158.800781 205.683594 161.695312 204.640625 164.578125 203.554688 C 165.648438 203.148438 166.621094 203.171875 167.449219 204 C 168.277344 204.832031 168.285156 205.800781 167.890625 206.875 C 161.230469 225.003906 154.582031 243.136719 147.941406 261.269531 C 145.796875 267.132812 143.648438 272.992188 141.5 278.851562 C 141.023438 280.15625 140.140625 280.816406 138.957031 280.769531 C 137.773438 280.71875 136.957031 279.996094 136.597656 278.636719 C 134.246094 269.734375 131.894531 260.832031 129.546875 251.929688 C 129.070312 250.136719 129.320312 248.554688 130.300781 246.964844 C 133.007812 242.578125 135.628906 238.140625 138.28125 233.722656 C 138.460938 233.417969 138.632812 233.105469 138.8125 232.796875 Z M 138.652344 232.640625 " fill-opacity="1" fill-rule="nonzero"/></g></svg>