<svg xmlns="http://www.w3.org/2000/svg" xmlns:xlink="http://www.w3.org/1999/xlink" width="1200" zoomAndPan="magnify" viewBox="0 0 900 472.499986" height="630" preserveAspectRatio="xMidYMid meet" version="1.0"><defs><filter x="0%" y="0%" width="100%" height="100%" id="67fd268f1c"><feColorMatrix values="0 0 0 0 1 0 0 0 0 1 0 0 0 0 1 0 0 0 1 0" color-interpolation-filters="sRGB"/></filter><g/><clipPath id="069777c342"><path d="M 0.476562 0 L 899.523438 0 L 899.523438 472 L 0.476562 472 Z M 0.476562 0 " clip-rule="nonzero"/></clipPath><linearGradient x1="0" gradientTransform="matrix(899.048599, 0, 0, 472.000514, 0.475701, 0)" y1="0" x2="1" gradientUnits="userSpaceOnUse" y2="1" id="c9c4f349cd"><stop stop-opacity="1" stop-color="rgb(0.779724%, 31.759644%, 34.899902%)" offset="0"/><stop stop-opacity="1" stop-color="rgb(0.773621%, 31.575012%, 34.709167%)" offset="0.03125"/><stop stop-opacity="1" stop-color="rgb(0.761414%, 31.207275%, 34.329224%)" offset="0.0625"/><stop stop-opacity="1" stop-color="rgb(0.749207%, 30.839539%, 33.94928%)" offset="0.09375"/><stop stop-opacity="1" stop-color="rgb(0.737%, 30.471802%, 33.569336%)" offset="0.125"/><stop stop-opacity="1" stop-color="rgb(0.724792%, 30.105591%, 33.189392%)" offset="0.15625"/><stop stop-opacity="1" stop-color="rgb(0.712585%, 29.737854%, 32.810974%)" offset="0.1875"/><stop stop-opacity="1" stop-color="rgb(0.700378%, 29.370117%, 32.43103%)" offset="0.21875"/><stop stop-opacity="1" stop-color="rgb(0.688171%, 29.00238%, 32.051086%)" offset="0.25"/><stop stop-opacity="1" stop-color="rgb(0.675964%, 28.634644%, 31.671143%)" offset="0.28125"/><stop stop-opacity="1" stop-color="rgb(0.663757%, 28.266907%, 31.291199%)" offset="0.3125"/><stop stop-opacity="1" stop-color="rgb(0.65155%, 27.89917%, 30.911255%)" offset="0.34375"/><stop stop-opacity="1" stop-color="rgb(0.639343%, 27.532959%, 30.532837%)" offset="0.375"/><stop stop-opacity="1" stop-color="rgb(0.627136%, 27.165222%, 30.152893%)" offset="0.40625"/><stop stop-opacity="1" stop-color="rgb(0.614929%, 26.797485%, 29.772949%)" offset="0.4375"/><stop stop-opacity="1" stop-color="rgb(0.602722%, 26.429749%, 29.393005%)" offset="0.46875"/><stop stop-opacity="1" stop-color="rgb(0.590515%, 26.062012%, 29.013062%)" offset="0.5"/><stop stop-opacity="1" stop-color="rgb(0.584412%, 25.878906%, 28.823853%)" offset="0.5"/><stop stop-opacity="1" stop-color="rgb(0.578308%, 25.694275%, 28.633118%)" offset="0.53125"/><stop stop-opacity="1" stop-color="rgb(0.566101%, 25.328064%, 28.2547%)" offset="0.5625"/><stop stop-opacity="1" stop-color="rgb(0.553894%, 24.960327%, 27.874756%)" offset="0.59375"/><stop stop-opacity="1" stop-color="rgb(0.541687%, 24.59259%, 27.494812%)" offset="0.625"/><stop stop-opacity="1" stop-color="rgb(0.52948%, 24.224854%, 27.114868%)" offset="0.65625"/><stop stop-opacity="1" stop-color="rgb(0.517273%, 23.857117%, 26.734924%)" offset="0.6875"/><stop stop-opacity="1" stop-color="rgb(0.505066%, 23.48938%, 26.35498%)" offset="0.71875"/><stop stop-opacity="1" stop-color="rgb(0.492859%, 23.121643%, 25.976562%)" offset="0.75"/><stop stop-opacity="1" stop-color="rgb(0.480652%, 22.755432%, 25.596619%)" offset="0.78125"/><stop stop-opacity="1" stop-color="rgb(0.468445%, 22.387695%, 25.216675%)" offset="0.8125"/><stop stop-opacity="1" stop-color="rgb(0.456238%, 22.019958%, 24.836731%)" offset="0.84375"/><stop stop-opacity="1" stop-color="rgb(0.444031%, 21.652222%, 24.456787%)" offset="0.875"/><stop stop-opacity="1" stop-color="rgb(0.431824%, 21.284485%, 24.076843%)" offset="0.90625"/><stop stop-opacity="1" stop-color="rgb(0.419617%, 20.916748%, 23.698425%)" offset="0.9375"/><stop stop-opacity="1" stop-color="rgb(0.40741%, 20.550537%, 23.318481%)" offset="0.96875"/><stop stop-opacity="1" stop-color="rgb(0.395203%, 20.1828%, 22.938538%)" offset="1"/></linearGradient><mask id="1b310c2a1f"><g filter="url(#67fd268f1c)"><rect x="-90" width="1080" fill="#000000" y="-47.249999" height="566.999983" fill-opacity="0.08"/></g></mask><clipPath id="b25981b8cd"><path d="M 0.414062 0.9375 L 779.585938 0.9375 L 779.585938 353.125 L 0.414062 353.125 Z M 0.414062 0.9375 " clip-rule="nonzero"/></clipPath><clipPath id="ebc156d93d"><rect x="0" width="780" y="0" height="354"/></clipPath><clipPath id="0aad93ec26"><path d="M 93.730469 194.152344 L 177.644531 194.152344 L 177.644531 278 L 93.730469 278 Z M 93.730469 194.152344 " clip-rule="nonzero"/></clipPath></defs><g clip-path="url(#069777c342)"><path fill="#ffffff" d="M 0.476562 0 L 899.523438 0 L 899.523438 472 L 0.476562 472 Z M 0.476562 0 " fill-opacity="1" fill-rule="nonzero"/><path fill="#ffffff" d="M 0.476562 0 L 899.523438 0 L 899.523438 472 L 0.476562 472 Z M 0.476562 0 " fill-opacity="1" fill-rule="nonzero"/><path fill="url(#c9c4f349cd)" d="M 0.476562 0 L 0.476562 472 L 899.523438 472 L 899.523438 0 Z M 0.476562 0 " fill-rule="nonzero"/></g><g mask="url(#1b310c2a1f)"><g transform="matrix(1, 0, 0, 1, 60, 59)"><g clip-path="url(#ebc156d93d)"><g clip-path="url(#b25981b8cd)"><path fill="#ffffff" d="M 18.394531 0.9375 L 761.605469 0.9375 C 762.195312 0.9375 762.78125 0.964844 763.371094 1.023438 C 763.957031 1.082031 764.535156 1.167969 765.113281 1.28125 C 765.691406 1.398438 766.261719 1.539062 766.828125 1.710938 C 767.390625 1.882812 767.945312 2.078125 768.488281 2.304688 C 769.03125 2.53125 769.5625 2.78125 770.082031 3.058594 C 770.601562 3.335938 771.105469 3.640625 771.597656 3.96875 C 772.085938 4.292969 772.558594 4.644531 773.015625 5.019531 C 773.46875 5.390625 773.90625 5.785156 774.320312 6.203125 C 774.738281 6.621094 775.132812 7.054688 775.507812 7.511719 C 775.878906 7.964844 776.230469 8.4375 776.558594 8.929688 C 776.882812 9.417969 777.1875 9.921875 777.464844 10.441406 C 777.742188 10.960938 777.992188 11.492188 778.21875 12.035156 C 778.445312 12.582031 778.640625 13.132812 778.8125 13.699219 C 778.984375 14.261719 779.128906 14.832031 779.242188 15.410156 C 779.355469 15.988281 779.445312 16.570312 779.5 17.15625 C 779.558594 17.742188 779.585938 18.328125 779.585938 18.917969 L 779.585938 335.082031 C 779.585938 335.671875 779.558594 336.257812 779.5 336.84375 C 779.445312 337.429688 779.355469 338.011719 779.242188 338.589844 C 779.128906 339.167969 778.984375 339.738281 778.8125 340.300781 C 778.640625 340.867188 778.445312 341.417969 778.21875 341.964844 C 777.992188 342.507812 777.742188 343.039062 777.464844 343.558594 C 777.1875 344.078125 776.882812 344.582031 776.558594 345.074219 C 776.230469 345.5625 775.878906 346.035156 775.507812 346.488281 C 775.132812 346.945312 774.738281 347.382812 774.320312 347.796875 C 773.90625 348.214844 773.46875 348.609375 773.015625 348.984375 C 772.558594 349.355469 772.085938 349.707031 771.597656 350.035156 C 771.105469 350.359375 770.601562 350.664062 770.082031 350.941406 C 769.5625 351.21875 769.03125 351.46875 768.488281 351.695312 C 767.945312 351.921875 767.390625 352.117188 766.828125 352.289062 C 766.261719 352.460938 765.691406 352.601562 765.113281 352.71875 C 764.535156 352.832031 763.957031 352.917969 763.371094 352.976562 C 762.78125 353.035156 762.195312 353.0625 761.605469 353.0625 L 18.394531 353.0625 C 17.804688 353.0625 17.21875 353.035156 16.628906 352.976562 C 16.042969 352.917969 15.464844 352.832031 14.886719 352.71875 C 14.308594 352.601562 13.738281 352.460938 13.171875 352.289062 C 12.609375 352.117188 12.054688 351.921875 11.511719 351.695312 C 10.96875 351.46875 10.4375 351.21875 9.917969 350.941406 C 9.398438 350.664062 8.894531 350.359375 8.402344 350.035156 C 7.914062 349.707031 7.441406 349.355469 6.984375 348.984375 C 6.53125 348.609375 6.09375 348.214844 5.679688 347.796875 C 5.261719 347.382812 4.867188 346.945312 4.492188 346.488281 C 4.121094 346.035156 3.769531 345.5625 3.441406 345.074219 C 3.117188 344.582031 2.8125 344.078125 2.535156 343.558594 C 2.257812 343.039062 2.007812 342.507812 1.78125 341.964844 C 1.554688 341.417969 1.359375 340.867188 1.1875 340.300781 C 1.015625 339.738281 0.871094 339.167969 0.757812 338.589844 C 0.644531 338.011719 0.554688 337.429688 0.5 336.84375 C 0.441406 336.257812 0.414062 335.671875 0.414062 335.082031 L 0.414062 18.917969 C 0.414062 18.328125 0.441406 17.742188 0.5 17.15625 C 0.554688 16.570312 0.644531 15.988281 0.757812 15.410156 C 0.871094 14.832031 1.015625 14.261719 1.1875 13.699219 C 1.359375 13.132812 1.554688 12.582031 1.78125 12.035156 C 2.007812 11.492188 2.257812 10.960938 2.535156 10.441406 C 2.8125 9.921875 3.117188 9.417969 3.441406 8.929688 C 3.769531 8.4375 4.121094 7.964844 4.492188 7.511719 C 4.867188 7.054688 5.261719 6.621094 5.679688 6.203125 C 6.09375 5.785156 6.53125 5.390625 6.984375 5.019531 C 7.441406 4.644531 7.914062 4.292969 8.402344 3.96875 C 8.894531 3.640625 9.398438 3.335938 9.917969 3.058594 C 10.4375 2.78125 10.96875 2.53125 11.511719 2.304688 C 12.054688 2.078125 12.609375 1.882812 13.171875 1.710938 C 13.738281 1.539062 14.308594 1.398438 14.886719 1.28125 C 15.464844 1.167969 16.042969 1.082031 16.628906 1.023438 C 17.21875 0.964844 17.804688 0.9375 18.394531 0.9375 Z M 18.394531 0.9375 " fill-opacity="1" fill-rule="nonzero"/></g></g></g></g><path fill="#ffffff" d="M 195.269531 236 C 195.269531 237.964844 195.171875 239.921875 194.980469 241.875 C 194.789062 243.828125 194.5 245.769531 194.117188 247.691406 C 193.734375 249.617188 193.257812 251.519531 192.6875 253.398438 C 192.117188 255.277344 191.457031 257.125 190.707031 258.9375 C 189.957031 260.75 189.117188 262.523438 188.191406 264.253906 C 187.265625 265.984375 186.257812 267.667969 185.167969 269.300781 C 184.078125 270.929688 182.910156 272.507812 181.664062 274.023438 C 180.417969 275.542969 179.101562 276.992188 177.714844 278.382812 C 176.328125 279.769531 174.875 281.085938 173.355469 282.332031 C 171.839844 283.578125 170.265625 284.746094 168.632812 285.835938 C 167 286.925781 165.316406 287.933594 163.585938 288.859375 C 161.855469 289.785156 160.082031 290.625 158.269531 291.375 C 156.457031 292.125 154.609375 292.785156 152.730469 293.355469 C 150.851562 293.925781 148.953125 294.402344 147.027344 294.785156 C 145.101562 295.167969 143.160156 295.457031 141.207031 295.648438 C 139.253906 295.839844 137.296875 295.9375 135.332031 295.9375 C 133.371094 295.9375 131.410156 295.839844 129.457031 295.648438 C 127.503906 295.457031 125.566406 295.167969 123.640625 294.785156 C 121.714844 294.402344 119.8125 293.925781 117.933594 293.355469 C 116.054688 292.785156 114.210938 292.125 112.394531 291.375 C 110.582031 290.625 108.808594 289.785156 107.078125 288.859375 C 105.347656 287.933594 103.667969 286.925781 102.035156 285.835938 C 100.402344 284.746094 98.828125 283.578125 97.308594 282.332031 C 95.792969 281.085938 94.339844 279.769531 92.953125 278.382812 C 91.5625 276.992188 90.246094 275.542969 89 274.023438 C 87.757812 272.507812 86.589844 270.929688 85.496094 269.300781 C 84.40625 267.667969 83.398438 265.984375 82.472656 264.253906 C 81.546875 262.523438 80.710938 260.75 79.957031 258.9375 C 79.207031 257.125 78.546875 255.277344 77.976562 253.398438 C 77.40625 251.519531 76.929688 249.617188 76.546875 247.691406 C 76.164062 245.769531 75.878906 243.828125 75.683594 241.875 C 75.492188 239.921875 75.394531 237.964844 75.394531 236 C 75.394531 234.039062 75.492188 232.078125 75.683594 230.125 C 75.878906 228.171875 76.164062 226.234375 76.546875 224.308594 C 76.929688 222.382812 77.40625 220.480469 77.976562 218.601562 C 78.546875 216.722656 79.207031 214.878906 79.957031 213.0625 C 80.710938 211.25 81.546875 209.476562 82.472656 207.746094 C 83.398438 206.015625 84.40625 204.332031 85.496094 202.703125 C 86.589844 201.070312 87.757812 199.496094 89 197.976562 C 90.246094 196.460938 91.5625 195.007812 92.953125 193.617188 C 94.339844 192.230469 95.792969 190.914062 97.308594 189.667969 C 98.828125 188.421875 100.402344 187.253906 102.035156 186.164062 C 103.667969 185.074219 105.347656 184.066406 107.078125 183.140625 C 108.808594 182.214844 110.582031 181.378906 112.394531 180.625 C 114.210938 179.875 116.054688 179.214844 117.933594 178.644531 C 119.8125 178.074219 121.714844 177.597656 123.640625 177.214844 C 125.566406 176.832031 127.503906 176.542969 129.457031 176.351562 C 131.410156 176.160156 133.371094 176.0625 135.332031 176.0625 C 137.296875 176.0625 139.253906 176.160156 141.207031 176.351562 C 143.160156 176.542969 145.101562 176.832031 147.027344 177.214844 C 148.953125 177.597656 150.851562 178.074219 152.730469 178.644531 C 154.609375 179.214844 156.457031 179.875 158.269531 180.625 C 160.082031 181.378906 161.855469 182.214844 163.585938 183.140625 C 165.316406 184.066406 167 185.074219 168.632812 186.164062 C 170.265625 187.253906 171.839844 188.421875 173.355469 189.667969 C 174.875 190.914062 176.328125 192.230469 177.714844 193.617188 C 179.101562 195.007812 180.417969 196.460938 181.664062 197.976562 C 182.910156 199.496094 184.078125 201.070312 185.167969 202.703125 C 186.257812 204.332031 187.265625 206.015625 188.191406 207.746094 C 189.117188 209.476562 189.957031 211.25 190.707031 213.0625 C 191.457031 214.878906 192.117188 216.722656 192.6875 218.601562 C 193.257812 220.480469 193.734375 222.382812 194.117188 224.308594 C 194.5 226.234375 194.789062 228.171875 194.980469 230.125 C 195.171875 232.078125 195.269531 234.039062 195.269531 236 Z M 195.269531 236 " fill-opacity="1" fill-rule="nonzero"/><path fill="#ffffff" d="M 120.347656 206.03125 L 120.347656 265.96875 L 169.046875 236 Z M 120.347656 206.03125 " fill-opacity="1" fill-rule="nonzero"/><g fill="#ffffff" fill-opacity="1"><g transform="translate(225.237841, 224.76214)"><g><path d="M 3.84375 -30.578125 L 25.140625 -30.578125 L 25.140625 -24.625 L 11.734375 -24.625 L 11.734375 -18.921875 L 24.34375 -18.921875 L 24.34375 -12.96875 L 11.734375 -12.96875 L 11.734375 -5.96875 L 25.578125 -5.96875 L 25.578125 0 L 3.84375 0 Z M 3.84375 -30.578125 "/></g></g><g transform="translate(253.897941, 224.76214)"><g><path d="M 26.59375 -13.96875 L 26.59375 0 L 19.21875 0 L 19.21875 -10.6875 C 19.21875 -12.664062 19.171875 -14.03125 19.078125 -14.78125 C 18.992188 -15.539062 18.84375 -16.097656 18.625 -16.453125 C 18.332031 -16.929688 17.941406 -17.300781 17.453125 -17.5625 C 16.960938 -17.832031 16.398438 -17.96875 15.765625 -17.96875 C 14.242188 -17.96875 13.046875 -17.375 12.171875 -16.1875 C 11.296875 -15.007812 10.859375 -13.375 10.859375 -11.28125 L 10.859375 0 L 3.515625 0 L 3.515625 -22.9375 L 10.859375 -22.9375 L 10.859375 -19.578125 C 11.960938 -20.921875 13.132812 -21.910156 14.375 -22.546875 C 15.625 -23.179688 17 -23.5 18.5 -23.5 C 21.144531 -23.5 23.15625 -22.6875 24.53125 -21.0625 C 25.90625 -19.4375 26.59375 -17.070312 26.59375 -13.96875 Z M 26.59375 -13.96875 "/></g></g><g transform="translate(283.766722, 224.76214)"><g><path d="M 19.140625 -3.890625 C 18.117188 -2.554688 17 -1.570312 15.78125 -0.9375 C 14.570312 -0.3125 13.171875 0 11.578125 0 C 8.773438 0 6.457031 -1.097656 4.625 -3.296875 C 2.800781 -5.503906 1.890625 -8.316406 1.890625 -11.734375 C 1.890625 -15.160156 2.800781 -17.96875 4.625 -20.15625 C 6.457031 -22.351562 8.773438 -23.453125 11.578125 -23.453125 C 13.171875 -23.453125 14.570312 -23.140625 15.78125 -22.515625 C 17 -21.890625 18.117188 -20.898438 19.140625 -19.546875 L 19.140625 -22.9375 L 26.5 -22.9375 L 26.5 -2.3125 C 26.5 1.375 25.332031 4.1875 23 6.125 C 20.675781 8.070312 17.304688 9.046875 12.890625 9.046875 C 11.453125 9.046875 10.0625 8.9375 8.71875 8.71875 C 7.382812 8.507812 6.039062 8.175781 4.6875 7.71875 L 4.6875 2 C 5.96875 2.738281 7.222656 3.289062 8.453125 3.65625 C 9.679688 4.019531 10.921875 4.203125 12.171875 4.203125 C 14.566406 4.203125 16.328125 3.675781 17.453125 2.625 C 18.578125 1.570312 19.140625 -0.0703125 19.140625 -2.3125 Z M 14.296875 -18.171875 C 12.785156 -18.171875 11.601562 -17.609375 10.75 -16.484375 C 9.90625 -15.367188 9.484375 -13.785156 9.484375 -11.734375 C 9.484375 -9.628906 9.890625 -8.035156 10.703125 -6.953125 C 11.523438 -5.867188 12.722656 -5.328125 14.296875 -5.328125 C 15.828125 -5.328125 17.015625 -5.882812 17.859375 -7 C 18.710938 -8.125 19.140625 -9.703125 19.140625 -11.734375 C 19.140625 -13.785156 18.710938 -15.367188 17.859375 -16.484375 C 17.015625 -17.609375 15.828125 -18.171875 14.296875 -18.171875 Z M 14.296875 -18.171875 "/></g></g><g transform="translate(313.799392, 224.76214)"><g><path d="M 3.515625 -31.875 L 10.859375 -31.875 L 10.859375 0 L 3.515625 0 Z M 3.515625 -31.875 "/></g></g><g transform="translate(328.180657, 224.76214)"><g><path d="M 3.515625 -22.9375 L 10.859375 -22.9375 L 10.859375 0 L 3.515625 0 Z M 3.515625 -31.875 L 10.859375 -31.875 L 10.859375 -25.890625 L 3.515625 -25.890625 Z M 3.515625 -31.875 "/></g></g><g transform="translate(342.561922, 224.76214)"><g><path d="M 21.453125 -22.21875 L 21.453125 -16.65625 C 19.878906 -17.3125 18.359375 -17.800781 16.890625 -18.125 C 15.429688 -18.457031 14.054688 -18.625 12.765625 -18.625 C 11.367188 -18.625 10.332031 -18.445312 9.65625 -18.09375 C 8.976562 -17.75 8.640625 -17.210938 8.640625 -16.484375 C 8.640625 -15.898438 8.894531 -15.453125 9.40625 -15.140625 C 9.925781 -14.828125 10.847656 -14.59375 12.171875 -14.4375 L 13.453125 -14.25 C 17.210938 -13.78125 19.738281 -13 21.03125 -11.90625 C 22.332031 -10.8125 22.984375 -9.097656 22.984375 -6.765625 C 22.984375 -4.316406 22.082031 -2.476562 20.28125 -1.25 C 18.476562 -0.0195312 15.785156 0.59375 12.203125 0.59375 C 10.691406 0.59375 9.125 0.472656 7.5 0.234375 C 5.882812 -0.00390625 4.222656 -0.363281 2.515625 -0.84375 L 2.515625 -6.40625 C 3.984375 -5.695312 5.484375 -5.164062 7.015625 -4.8125 C 8.554688 -4.457031 10.117188 -4.28125 11.703125 -4.28125 C 13.128906 -4.28125 14.203125 -4.476562 14.921875 -4.875 C 15.648438 -5.269531 16.015625 -5.859375 16.015625 -6.640625 C 16.015625 -7.296875 15.765625 -7.78125 15.265625 -8.09375 C 14.773438 -8.414062 13.785156 -8.664062 12.296875 -8.84375 L 11 -9.015625 C 7.738281 -9.421875 5.453125 -10.175781 4.140625 -11.28125 C 2.828125 -12.394531 2.171875 -14.078125 2.171875 -16.328125 C 2.171875 -18.753906 3.003906 -20.554688 4.671875 -21.734375 C 6.335938 -22.910156 8.890625 -23.5 12.328125 -23.5 C 13.679688 -23.5 15.101562 -23.394531 16.59375 -23.1875 C 18.082031 -22.976562 19.703125 -22.65625 21.453125 -22.21875 Z M 21.453125 -22.21875 "/></g></g><g transform="translate(367.534518, 224.76214)"><g><path d="M 26.59375 -13.96875 L 26.59375 0 L 19.21875 0 L 19.21875 -10.65625 C 19.21875 -12.65625 19.171875 -14.03125 19.078125 -14.78125 C 18.992188 -15.539062 18.84375 -16.097656 18.625 -16.453125 C 18.332031 -16.929688 17.941406 -17.300781 17.453125 -17.5625 C 16.960938 -17.832031 16.398438 -17.96875 15.765625 -17.96875 C 14.242188 -17.96875 13.046875 -17.375 12.171875 -16.1875 C 11.296875 -15.007812 10.859375 -13.375 10.859375 -11.28125 L 10.859375 0 L 3.515625 0 L 3.515625 -31.875 L 10.859375 -31.875 L 10.859375 -19.578125 C 11.960938 -20.921875 13.132812 -21.910156 14.375 -22.546875 C 15.625 -23.179688 17 -23.5 18.5 -23.5 C 21.144531 -23.5 23.15625 -22.6875 24.53125 -21.0625 C 25.90625 -19.4375 26.59375 -17.070312 26.59375 -13.96875 Z M 26.59375 -13.96875 "/></g></g><g transform="translate(397.403299, 224.76214)"><g/></g><g transform="translate(412.009911, 224.76214)"><g><path d="M 1.46875 -22.9375 L 8.609375 -22.9375 L 12.453125 -7.125 L 16.328125 -22.9375 L 22.453125 -22.9375 L 26.296875 -7.296875 L 30.171875 -22.9375 L 37.296875 -22.9375 L 31.265625 0 L 23.25 0 L 19.375 -15.765625 L 15.53125 0 L 7.515625 0 Z M 1.46875 -22.9375 "/></g></g><g transform="translate(450.769674, 224.76214)"><g><path d="M 3.515625 -22.9375 L 10.859375 -22.9375 L 10.859375 0 L 3.515625 0 Z M 3.515625 -31.875 L 10.859375 -31.875 L 10.859375 -25.890625 L 3.515625 -25.890625 Z M 3.515625 -31.875 "/></g></g><g transform="translate(465.15094, 224.76214)"><g><path d="M 11.53125 -29.453125 L 11.53125 -22.9375 L 19.09375 -22.9375 L 19.09375 -17.703125 L 11.53125 -17.703125 L 11.53125 -7.96875 C 11.53125 -6.90625 11.738281 -6.1875 12.15625 -5.8125 C 12.582031 -5.4375 13.425781 -5.25 14.6875 -5.25 L 18.453125 -5.25 L 18.453125 0 L 12.171875 0 C 9.273438 0 7.222656 -0.601562 6.015625 -1.8125 C 4.804688 -3.019531 4.203125 -5.070312 4.203125 -7.96875 L 4.203125 -17.703125 L 0.546875 -17.703125 L 0.546875 -22.9375 L 4.203125 -22.9375 L 4.203125 -29.453125 Z M 11.53125 -29.453125 "/></g></g><g transform="translate(485.206863, 224.76214)"><g><path d="M 26.59375 -13.96875 L 26.59375 0 L 19.21875 0 L 19.21875 -10.65625 C 19.21875 -12.65625 19.171875 -14.03125 19.078125 -14.78125 C 18.992188 -15.539062 18.84375 -16.097656 18.625 -16.453125 C 18.332031 -16.929688 17.941406 -17.300781 17.453125 -17.5625 C 16.960938 -17.832031 16.398438 -17.96875 15.765625 -17.96875 C 14.242188 -17.96875 13.046875 -17.375 12.171875 -16.1875 C 11.296875 -15.007812 10.859375 -13.375 10.859375 -11.28125 L 10.859375 0 L 3.515625 0 L 3.515625 -31.875 L 10.859375 -31.875 L 10.859375 -19.578125 C 11.960938 -20.921875 13.132812 -21.910156 14.375 -22.546875 C 15.625 -23.179688 17 -23.5 18.5 -23.5 C 21.144531 -23.5 23.15625 -22.6875 24.53125 -21.0625 C 25.90625 -19.4375 26.59375 -17.070312 26.59375 -13.96875 Z M 26.59375 -13.96875 "/></g></g><g transform="translate(515.075644, 224.76214)"><g/></g><g transform="translate(529.682257, 224.76214)"><g><path d="M 17.828125 -25.421875 C 15.421875 -25.421875 13.554688 -24.53125 12.234375 -22.75 C 10.910156 -20.976562 10.25 -18.484375 10.25 -15.265625 C 10.25 -12.054688 10.910156 -9.5625 12.234375 -7.78125 C 13.554688 -6.007812 15.421875 -5.125 17.828125 -5.125 C 20.242188 -5.125 22.113281 -6.007812 23.4375 -7.78125 C 24.757812 -9.5625 25.421875 -12.054688 25.421875 -15.265625 C 25.421875 -18.484375 24.757812 -20.976562 23.4375 -22.75 C 22.113281 -24.53125 20.242188 -25.421875 17.828125 -25.421875 Z M 17.828125 -31.140625 C 22.742188 -31.140625 26.59375 -29.734375 29.375 -26.921875 C 32.15625 -24.109375 33.546875 -20.222656 33.546875 -15.265625 C 33.546875 -10.316406 32.15625 -6.4375 29.375 -3.625 C 26.59375 -0.8125 22.742188 0.59375 17.828125 0.59375 C 12.921875 0.59375 9.070312 -0.8125 6.28125 -3.625 C 3.488281 -6.4375 2.09375 -10.316406 2.09375 -15.265625 C 2.09375 -20.222656 3.488281 -24.109375 6.28125 -26.921875 C 9.070312 -29.734375 12.921875 -31.140625 17.828125 -31.140625 Z M 17.828125 -31.140625 "/></g></g><g transform="translate(565.348614, 224.76214)"><g><path d="M 24.78125 -19.140625 C 25.71875 -20.554688 26.820312 -21.632812 28.09375 -22.375 C 29.375 -23.125 30.78125 -23.5 32.3125 -23.5 C 34.945312 -23.5 36.953125 -22.6875 38.328125 -21.0625 C 39.703125 -19.4375 40.390625 -17.070312 40.390625 -13.96875 L 40.390625 0 L 33.015625 0 L 33.015625 -11.96875 C 33.035156 -12.144531 33.046875 -12.328125 33.046875 -12.515625 C 33.054688 -12.703125 33.0625 -12.972656 33.0625 -13.328125 C 33.0625 -14.953125 32.820312 -16.128906 32.34375 -16.859375 C 31.863281 -17.597656 31.09375 -17.96875 30.03125 -17.96875 C 28.632812 -17.96875 27.554688 -17.394531 26.796875 -16.25 C 26.046875 -15.101562 25.65625 -13.441406 25.625 -11.265625 L 25.625 0 L 18.25 0 L 18.25 -11.96875 C 18.25 -14.5 18.03125 -16.128906 17.59375 -16.859375 C 17.15625 -17.597656 16.378906 -17.96875 15.265625 -17.96875 C 13.859375 -17.96875 12.769531 -17.390625 12 -16.234375 C 11.238281 -15.078125 10.859375 -13.425781 10.859375 -11.28125 L 10.859375 0 L 3.484375 0 L 3.484375 -22.9375 L 10.859375 -22.9375 L 10.859375 -19.578125 C 11.753906 -20.878906 12.785156 -21.859375 13.953125 -22.515625 C 15.128906 -23.171875 16.421875 -23.5 17.828125 -23.5 C 19.410156 -23.5 20.804688 -23.113281 22.015625 -22.34375 C 23.234375 -21.582031 24.15625 -20.515625 24.78125 -19.140625 Z M 24.78125 -19.140625 "/></g></g><g transform="translate(609.066021, 224.76214)"><g><path d="M 13.8125 -10.328125 C 12.28125 -10.328125 11.128906 -10.066406 10.359375 -9.546875 C 9.585938 -9.023438 9.203125 -8.257812 9.203125 -7.25 C 9.203125 -6.320312 9.507812 -5.59375 10.125 -5.0625 C 10.75 -4.539062 11.613281 -4.28125 12.71875 -4.28125 C 14.101562 -4.28125 15.265625 -4.773438 16.203125 -5.765625 C 17.140625 -6.753906 17.609375 -7.992188 17.609375 -9.484375 L 17.609375 -10.328125 Z M 25.015625 -13.09375 L 25.015625 0 L 17.609375 0 L 17.609375 -3.40625 C 16.628906 -2.007812 15.523438 -0.992188 14.296875 -0.359375 C 13.066406 0.273438 11.570312 0.59375 9.8125 0.59375 C 7.4375 0.59375 5.503906 -0.0976562 4.015625 -1.484375 C 2.535156 -2.867188 1.796875 -4.671875 1.796875 -6.890625 C 1.796875 -9.578125 2.722656 -11.546875 4.578125 -12.796875 C 6.429688 -14.054688 9.335938 -14.6875 13.296875 -14.6875 L 17.609375 -14.6875 L 17.609375 -15.265625 C 17.609375 -16.421875 17.148438 -17.269531 16.234375 -17.8125 C 15.328125 -18.351562 13.90625 -18.625 11.96875 -18.625 C 10.394531 -18.625 8.929688 -18.460938 7.578125 -18.140625 C 6.222656 -17.828125 4.96875 -17.359375 3.8125 -16.734375 L 3.8125 -22.328125 C 5.382812 -22.710938 6.960938 -23.003906 8.546875 -23.203125 C 10.128906 -23.398438 11.710938 -23.5 13.296875 -23.5 C 17.429688 -23.5 20.414062 -22.679688 22.25 -21.046875 C 24.09375 -19.410156 25.015625 -16.757812 25.015625 -13.09375 Z M 25.015625 -13.09375 "/></g></g><g transform="translate(637.377856, 224.76214)"><g><path d="M 20.5625 -16.6875 C 19.925781 -16.988281 19.289062 -17.210938 18.65625 -17.359375 C 18.019531 -17.503906 17.378906 -17.578125 16.734375 -17.578125 C 14.847656 -17.578125 13.394531 -16.972656 12.375 -15.765625 C 11.363281 -14.554688 10.859375 -12.820312 10.859375 -10.5625 L 10.859375 0 L 3.515625 0 L 3.515625 -22.9375 L 10.859375 -22.9375 L 10.859375 -19.171875 C 11.796875 -20.671875 12.875 -21.765625 14.09375 -22.453125 C 15.320312 -23.148438 16.789062 -23.5 18.5 -23.5 C 18.738281 -23.5 19.003906 -23.488281 19.296875 -23.46875 C 19.585938 -23.445312 20.003906 -23.398438 20.546875 -23.328125 Z M 20.5625 -16.6875 "/></g></g></g><g fill="#bfe7ea" fill-opacity="1"><g transform="translate(225.237841, 269.714568)"><g><path d="M -0.046875 -15.296875 L 2.1875 -15.296875 L 6.421875 -9 L 10.640625 -15.296875 L 12.859375 -15.296875 L 7.453125 -7.28125 L 7.453125 0 L 5.375 0 L 5.375 -7.28125 Z M -0.046875 -15.296875 "/></g></g></g><g fill="#bfe7ea" fill-opacity="1"><g transform="translate(235.265803, 269.714568)"><g><path d="M 6.421875 -10.15625 C 5.410156 -10.15625 4.609375 -9.757812 4.015625 -8.96875 C 3.429688 -8.175781 3.140625 -7.097656 3.140625 -5.734375 C 3.140625 -4.359375 3.429688 -3.273438 4.015625 -2.484375 C 4.597656 -1.691406 5.398438 -1.296875 6.421875 -1.296875 C 7.429688 -1.296875 8.226562 -1.691406 8.8125 -2.484375 C 9.394531 -3.273438 9.6875 -4.359375 9.6875 -5.734375 C 9.6875 -7.085938 9.394531 -8.160156 8.8125 -8.953125 C 8.226562 -9.753906 7.429688 -10.15625 6.421875 -10.15625 Z M 6.421875 -11.75 C 8.066406 -11.75 9.351562 -11.21875 10.28125 -10.15625 C 11.21875 -9.09375 11.6875 -7.617188 11.6875 -5.734375 C 11.6875 -3.847656 11.21875 -2.367188 10.28125 -1.296875 C 9.351562 -0.234375 8.066406 0.296875 6.421875 0.296875 C 4.773438 0.296875 3.484375 -0.234375 2.546875 -1.296875 C 1.617188 -2.367188 1.15625 -3.847656 1.15625 -5.734375 C 1.15625 -7.617188 1.617188 -9.09375 2.546875 -10.15625 C 3.484375 -11.21875 4.773438 -11.75 6.421875 -11.75 Z M 6.421875 -11.75 "/></g></g><g transform="translate(248.100365, 269.714568)"><g><path d="M 1.78125 -4.53125 L 1.78125 -11.46875 L 3.671875 -11.46875 L 3.671875 -4.59375 C 3.671875 -3.507812 3.878906 -2.695312 4.296875 -2.15625 C 4.722656 -1.613281 5.359375 -1.34375 6.203125 -1.34375 C 7.222656 -1.34375 8.03125 -1.664062 8.625 -2.3125 C 9.21875 -2.957031 9.515625 -3.84375 9.515625 -4.96875 L 9.515625 -11.46875 L 11.390625 -11.46875 L 11.390625 0 L 9.515625 0 L 9.515625 -1.765625 C 9.054688 -1.066406 8.523438 -0.546875 7.921875 -0.203125 C 7.316406 0.128906 6.613281 0.296875 5.8125 0.296875 C 4.488281 0.296875 3.484375 -0.109375 2.796875 -0.921875 C 2.117188 -1.742188 1.78125 -2.945312 1.78125 -4.53125 Z M 1.78125 -4.53125 "/></g></g><g transform="translate(261.395865, 269.714568)"><g><path d="M -0.0625 -15.296875 L 12.875 -15.296875 L 12.875 -13.5625 L 7.453125 -13.5625 L 7.453125 0 L 5.375 0 L 5.375 -13.5625 L -0.0625 -13.5625 Z M -0.0625 -15.296875 "/></g></g></g><g fill="#bfe7ea" fill-opacity="1"><g transform="translate(271.024348, 269.714568)"><g><path d="M 1.78125 -4.53125 L 1.78125 -11.46875 L 3.671875 -11.46875 L 3.671875 -4.59375 C 3.671875 -3.507812 3.878906 -2.695312 4.296875 -2.15625 C 4.722656 -1.613281 5.359375 -1.34375 6.203125 -1.34375 C 7.222656 -1.34375 8.03125 -1.664062 8.625 -2.3125 C 9.21875 -2.957031 9.515625 -3.84375 9.515625 -4.96875 L 9.515625 -11.46875 L 11.390625 -11.46875 L 11.390625 0 L 9.515625 0 L 9.515625 -1.765625 C 9.054688 -1.066406 8.523438 -0.546875 7.921875 -0.203125 C 7.316406 0.128906 6.613281 0.296875 5.8125 0.296875 C 4.488281 0.296875 3.484375 -0.109375 2.796875 -0.921875 C 2.117188 -1.742188 1.78125 -2.945312 1.78125 -4.53125 Z M 1.78125 -4.53125 "/></g></g><g transform="translate(284.319848, 269.714568)"><g><path d="M 10.21875 -5.734375 C 10.21875 -7.117188 9.929688 -8.203125 9.359375 -8.984375 C 8.785156 -9.773438 8.003906 -10.171875 7.015625 -10.171875 C 6.015625 -10.171875 5.226562 -9.773438 4.65625 -8.984375 C 4.082031 -8.203125 3.796875 -7.117188 3.796875 -5.734375 C 3.796875 -4.335938 4.082031 -3.242188 4.65625 -2.453125 C 5.226562 -1.671875 6.015625 -1.28125 7.015625 -1.28125 C 8.003906 -1.28125 8.785156 -1.671875 9.359375 -2.453125 C 9.929688 -3.242188 10.21875 -4.335938 10.21875 -5.734375 Z M 3.796875 -9.734375 C 4.191406 -10.421875 4.691406 -10.925781 5.296875 -11.25 C 5.898438 -11.582031 6.625 -11.75 7.46875 -11.75 C 8.863281 -11.75 9.992188 -11.195312 10.859375 -10.09375 C 11.734375 -8.988281 12.171875 -7.535156 12.171875 -5.734375 C 12.171875 -3.921875 11.734375 -2.460938 10.859375 -1.359375 C 9.992188 -0.253906 8.863281 0.296875 7.46875 0.296875 C 6.625 0.296875 5.898438 0.128906 5.296875 -0.203125 C 4.691406 -0.535156 4.191406 -1.039062 3.796875 -1.71875 L 3.796875 0 L 1.90625 0 L 1.90625 -15.9375 L 3.796875 -15.9375 Z M 3.796875 -9.734375 "/></g></g><g transform="translate(297.635834, 269.714568)"><g><path d="M 11.796875 -6.203125 L 11.796875 -5.28125 L 3.125 -5.28125 C 3.207031 -3.988281 3.597656 -3 4.296875 -2.3125 C 4.992188 -1.632812 5.96875 -1.296875 7.21875 -1.296875 C 7.945312 -1.296875 8.648438 -1.382812 9.328125 -1.5625 C 10.003906 -1.738281 10.679688 -2.003906 11.359375 -2.359375 L 11.359375 -0.578125 C 10.679688 -0.296875 9.984375 -0.0820312 9.265625 0.0625 C 8.554688 0.21875 7.835938 0.296875 7.109375 0.296875 C 5.273438 0.296875 3.820312 -0.234375 2.75 -1.296875 C 1.6875 -2.367188 1.15625 -3.8125 1.15625 -5.625 C 1.15625 -7.5 1.660156 -8.988281 2.671875 -10.09375 C 3.691406 -11.195312 5.0625 -11.75 6.78125 -11.75 C 8.320312 -11.75 9.539062 -11.25 10.4375 -10.25 C 11.34375 -9.257812 11.796875 -7.910156 11.796875 -6.203125 Z M 9.90625 -6.765625 C 9.894531 -7.796875 9.609375 -8.617188 9.046875 -9.234375 C 8.484375 -9.847656 7.734375 -10.15625 6.796875 -10.15625 C 5.742188 -10.15625 4.898438 -9.859375 4.265625 -9.265625 C 3.640625 -8.671875 3.28125 -7.832031 3.1875 -6.75 Z M 9.90625 -6.765625 "/></g></g><g transform="translate(310.542097, 269.714568)"><g/></g><g transform="translate(317.210334, 269.714568)"><g><path d="M 2.0625 -15.296875 L 11.734375 -15.296875 L 11.734375 -13.5625 L 4.125 -13.5625 L 4.125 -9.03125 L 11.421875 -9.03125 L 11.421875 -7.28125 L 4.125 -7.28125 L 4.125 -1.734375 L 11.921875 -1.734375 L 11.921875 0 L 2.0625 0 Z M 2.0625 -15.296875 "/></g></g><g transform="translate(330.464861, 269.714568)"><g><path d="M 9.53125 -9.734375 L 9.53125 -15.9375 L 11.421875 -15.9375 L 11.421875 0 L 9.53125 0 L 9.53125 -1.71875 C 9.132812 -1.039062 8.632812 -0.535156 8.03125 -0.203125 C 7.425781 0.128906 6.695312 0.296875 5.84375 0.296875 C 4.457031 0.296875 3.328125 -0.253906 2.453125 -1.359375 C 1.585938 -2.460938 1.15625 -3.921875 1.15625 -5.734375 C 1.15625 -7.535156 1.585938 -8.988281 2.453125 -10.09375 C 3.328125 -11.195312 4.457031 -11.75 5.84375 -11.75 C 6.695312 -11.75 7.425781 -11.582031 8.03125 -11.25 C 8.632812 -10.925781 9.132812 -10.421875 9.53125 -9.734375 Z M 3.109375 -5.734375 C 3.109375 -4.335938 3.390625 -3.242188 3.953125 -2.453125 C 4.523438 -1.671875 5.3125 -1.28125 6.3125 -1.28125 C 7.3125 -1.28125 8.097656 -1.671875 8.671875 -2.453125 C 9.242188 -3.242188 9.53125 -4.335938 9.53125 -5.734375 C 9.53125 -7.117188 9.242188 -8.203125 8.671875 -8.984375 C 8.097656 -9.773438 7.3125 -10.171875 6.3125 -10.171875 C 5.3125 -10.171875 4.523438 -9.773438 3.953125 -8.984375 C 3.390625 -8.203125 3.109375 -7.117188 3.109375 -5.734375 Z M 3.109375 -5.734375 "/></g></g><g transform="translate(343.780848, 269.714568)"><g><path d="M 1.78125 -4.53125 L 1.78125 -11.46875 L 3.671875 -11.46875 L 3.671875 -4.59375 C 3.671875 -3.507812 3.878906 -2.695312 4.296875 -2.15625 C 4.722656 -1.613281 5.359375 -1.34375 6.203125 -1.34375 C 7.222656 -1.34375 8.03125 -1.664062 8.625 -2.3125 C 9.21875 -2.957031 9.515625 -3.84375 9.515625 -4.96875 L 9.515625 -11.46875 L 11.390625 -11.46875 L 11.390625 0 L 9.515625 0 L 9.515625 -1.765625 C 9.054688 -1.066406 8.523438 -0.546875 7.921875 -0.203125 C 7.316406 0.128906 6.613281 0.296875 5.8125 0.296875 C 4.488281 0.296875 3.484375 -0.109375 2.796875 -0.921875 C 2.117188 -1.742188 1.78125 -2.945312 1.78125 -4.53125 Z M 1.78125 -4.53125 "/></g></g><g transform="translate(357.076348, 269.714568)"><g><path d="M 10.234375 -11.03125 L 10.234375 -9.265625 C 9.703125 -9.566406 9.164062 -9.789062 8.625 -9.9375 C 8.09375 -10.082031 7.554688 -10.15625 7.015625 -10.15625 C 5.785156 -10.15625 4.832031 -9.765625 4.15625 -8.984375 C 3.476562 -8.210938 3.140625 -7.128906 3.140625 -5.734375 C 3.140625 -4.328125 3.476562 -3.234375 4.15625 -2.453125 C 4.832031 -1.679688 5.785156 -1.296875 7.015625 -1.296875 C 7.554688 -1.296875 8.09375 -1.367188 8.625 -1.515625 C 9.164062 -1.660156 9.703125 -1.882812 10.234375 -2.1875 L 10.234375 -0.4375 C 9.710938 -0.195312 9.164062 -0.015625 8.59375 0.109375 C 8.03125 0.234375 7.429688 0.296875 6.796875 0.296875 C 5.078125 0.296875 3.707031 -0.242188 2.6875 -1.328125 C 1.664062 -2.421875 1.15625 -3.890625 1.15625 -5.734375 C 1.15625 -7.597656 1.664062 -9.066406 2.6875 -10.140625 C 3.71875 -11.210938 5.128906 -11.75 6.921875 -11.75 C 7.503906 -11.75 8.070312 -11.6875 8.625 -11.5625 C 9.175781 -11.445312 9.710938 -11.269531 10.234375 -11.03125 Z M 10.234375 -11.03125 "/></g></g><g transform="translate(368.61004, 269.714568)"><g><path d="M 7.1875 -5.765625 C 5.664062 -5.765625 4.609375 -5.585938 4.015625 -5.234375 C 3.429688 -4.890625 3.140625 -4.300781 3.140625 -3.46875 C 3.140625 -2.789062 3.359375 -2.253906 3.796875 -1.859375 C 4.242188 -1.472656 4.847656 -1.28125 5.609375 -1.28125 C 6.648438 -1.28125 7.484375 -1.648438 8.109375 -2.390625 C 8.742188 -3.128906 9.0625 -4.113281 9.0625 -5.34375 L 9.0625 -5.765625 Z M 10.953125 -6.546875 L 10.953125 0 L 9.0625 0 L 9.0625 -1.734375 C 8.632812 -1.046875 8.097656 -0.535156 7.453125 -0.203125 C 6.816406 0.128906 6.035156 0.296875 5.109375 0.296875 C 3.929688 0.296875 2.992188 -0.03125 2.296875 -0.6875 C 1.609375 -1.351562 1.265625 -2.238281 1.265625 -3.34375 C 1.265625 -4.632812 1.695312 -5.609375 2.5625 -6.265625 C 3.425781 -6.921875 4.710938 -7.25 6.421875 -7.25 L 9.0625 -7.25 L 9.0625 -7.421875 C 9.0625 -8.296875 8.773438 -8.96875 8.203125 -9.4375 C 7.640625 -9.914062 6.84375 -10.15625 5.8125 -10.15625 C 5.15625 -10.15625 4.515625 -10.078125 3.890625 -9.921875 C 3.273438 -9.765625 2.675781 -9.53125 2.09375 -9.21875 L 2.09375 -10.953125 C 2.789062 -11.222656 3.460938 -11.421875 4.109375 -11.546875 C 4.753906 -11.679688 5.382812 -11.75 6 -11.75 C 7.664062 -11.75 8.90625 -11.316406 9.71875 -10.453125 C 10.539062 -9.597656 10.953125 -8.296875 10.953125 -6.546875 Z M 10.953125 -6.546875 "/></g></g><g transform="translate(381.465089, 269.714568)"><g><path d="M 3.84375 -14.734375 L 3.84375 -11.46875 L 7.71875 -11.46875 L 7.71875 -10.015625 L 3.84375 -10.015625 L 3.84375 -3.78125 C 3.84375 -2.84375 3.96875 -2.238281 4.21875 -1.96875 C 4.476562 -1.707031 5.003906 -1.578125 5.796875 -1.578125 L 7.71875 -1.578125 L 7.71875 0 L 5.796875 0 C 4.335938 0 3.332031 -0.269531 2.78125 -0.8125 C 2.226562 -1.351562 1.953125 -2.34375 1.953125 -3.78125 L 1.953125 -10.015625 L 0.5625 -10.015625 L 0.5625 -11.46875 L 1.953125 -11.46875 L 1.953125 -14.734375 Z M 3.84375 -14.734375 "/></g></g><g transform="translate(389.690271, 269.714568)"><g><path d="M 1.984375 -11.46875 L 3.859375 -11.46875 L 3.859375 0 L 1.984375 0 Z M 1.984375 -15.9375 L 3.859375 -15.9375 L 3.859375 -13.5625 L 1.984375 -13.5625 Z M 1.984375 -15.9375 "/></g></g><g transform="translate(395.518575, 269.714568)"><g><path d="M 6.421875 -10.15625 C 5.410156 -10.15625 4.609375 -9.757812 4.015625 -8.96875 C 3.429688 -8.175781 3.140625 -7.097656 3.140625 -5.734375 C 3.140625 -4.359375 3.429688 -3.273438 4.015625 -2.484375 C 4.597656 -1.691406 5.398438 -1.296875 6.421875 -1.296875 C 7.429688 -1.296875 8.226562 -1.691406 8.8125 -2.484375 C 9.394531 -3.273438 9.6875 -4.359375 9.6875 -5.734375 C 9.6875 -7.085938 9.394531 -8.160156 8.8125 -8.953125 C 8.226562 -9.753906 7.429688 -10.15625 6.421875 -10.15625 Z M 6.421875 -11.75 C 8.066406 -11.75 9.351562 -11.21875 10.28125 -10.15625 C 11.21875 -9.09375 11.6875 -7.617188 11.6875 -5.734375 C 11.6875 -3.847656 11.21875 -2.367188 10.28125 -1.296875 C 9.351562 -0.234375 8.066406 0.296875 6.421875 0.296875 C 4.773438 0.296875 3.484375 -0.234375 2.546875 -1.296875 C 1.617188 -2.367188 1.15625 -3.847656 1.15625 -5.734375 C 1.15625 -7.617188 1.617188 -9.09375 2.546875 -10.15625 C 3.484375 -11.21875 4.773438 -11.75 6.421875 -11.75 Z M 6.421875 -11.75 "/></g></g><g transform="translate(408.353138, 269.714568)"><g><path d="M 11.515625 -6.921875 L 11.515625 0 L 9.625 0 L 9.625 -6.859375 C 9.625 -7.953125 9.410156 -8.765625 8.984375 -9.296875 C 8.566406 -9.835938 7.9375 -10.109375 7.09375 -10.109375 C 6.070312 -10.109375 5.265625 -9.785156 4.671875 -9.140625 C 4.085938 -8.492188 3.796875 -7.609375 3.796875 -6.484375 L 3.796875 0 L 1.90625 0 L 1.90625 -11.46875 L 3.796875 -11.46875 L 3.796875 -9.6875 C 4.253906 -10.382812 4.785156 -10.898438 5.390625 -11.234375 C 6.003906 -11.578125 6.710938 -11.75 7.515625 -11.75 C 8.828125 -11.75 9.820312 -11.335938 10.5 -10.515625 C 11.175781 -9.703125 11.515625 -8.503906 11.515625 -6.921875 Z M 11.515625 -6.921875 "/></g></g><g transform="translate(421.648638, 269.714568)"><g><path d="M 7.1875 -5.765625 C 5.664062 -5.765625 4.609375 -5.585938 4.015625 -5.234375 C 3.429688 -4.890625 3.140625 -4.300781 3.140625 -3.46875 C 3.140625 -2.789062 3.359375 -2.253906 3.796875 -1.859375 C 4.242188 -1.472656 4.847656 -1.28125 5.609375 -1.28125 C 6.648438 -1.28125 7.484375 -1.648438 8.109375 -2.390625 C 8.742188 -3.128906 9.0625 -4.113281 9.0625 -5.34375 L 9.0625 -5.765625 Z M 10.953125 -6.546875 L 10.953125 0 L 9.0625 0 L 9.0625 -1.734375 C 8.632812 -1.046875 8.097656 -0.535156 7.453125 -0.203125 C 6.816406 0.128906 6.035156 0.296875 5.109375 0.296875 C 3.929688 0.296875 2.992188 -0.03125 2.296875 -0.6875 C 1.609375 -1.351562 1.265625 -2.238281 1.265625 -3.34375 C 1.265625 -4.632812 1.695312 -5.609375 2.5625 -6.265625 C 3.425781 -6.921875 4.710938 -7.25 6.421875 -7.25 L 9.0625 -7.25 L 9.0625 -7.421875 C 9.0625 -8.296875 8.773438 -8.96875 8.203125 -9.4375 C 7.640625 -9.914062 6.84375 -10.15625 5.8125 -10.15625 C 5.15625 -10.15625 4.515625 -10.078125 3.890625 -9.921875 C 3.273438 -9.765625 2.675781 -9.53125 2.09375 -9.21875 L 2.09375 -10.953125 C 2.789062 -11.222656 3.460938 -11.421875 4.109375 -11.546875 C 4.753906 -11.679688 5.382812 -11.75 6 -11.75 C 7.664062 -11.75 8.90625 -11.316406 9.71875 -10.453125 C 10.539062 -9.597656 10.953125 -8.296875 10.953125 -6.546875 Z M 10.953125 -6.546875 "/></g></g><g transform="translate(434.503686, 269.714568)"><g><path d="M 1.984375 -15.9375 L 3.859375 -15.9375 L 3.859375 0 L 1.984375 0 Z M 1.984375 -15.9375 "/></g></g><g transform="translate(440.33199, 269.714568)"><g/></g><g transform="translate(447.000227, 269.714568)"><g><path d="M 13.515625 -14.125 L 13.515625 -11.9375 C 12.816406 -12.582031 12.070312 -13.066406 11.28125 -13.390625 C 10.5 -13.710938 9.660156 -13.875 8.765625 -13.875 C 7.015625 -13.875 5.675781 -13.335938 4.75 -12.265625 C 3.820312 -11.203125 3.359375 -9.660156 3.359375 -7.640625 C 3.359375 -5.617188 3.820312 -4.070312 4.75 -3 C 5.675781 -1.9375 7.015625 -1.40625 8.765625 -1.40625 C 9.660156 -1.40625 10.5 -1.5625 11.28125 -1.875 C 12.070312 -2.195312 12.816406 -2.6875 13.515625 -3.34375 L 13.515625 -1.171875 C 12.785156 -0.679688 12.015625 -0.3125 11.203125 -0.0625 C 10.398438 0.175781 9.546875 0.296875 8.640625 0.296875 C 6.328125 0.296875 4.503906 -0.410156 3.171875 -1.828125 C 1.835938 -3.242188 1.171875 -5.179688 1.171875 -7.640625 C 1.171875 -10.097656 1.835938 -12.035156 3.171875 -13.453125 C 4.503906 -14.867188 6.328125 -15.578125 8.640625 -15.578125 C 9.554688 -15.578125 10.421875 -15.453125 11.234375 -15.203125 C 12.046875 -14.960938 12.804688 -14.601562 13.515625 -14.125 Z M 13.515625 -14.125 "/></g></g><g transform="translate(461.647811, 269.714568)"><g><path d="M 11.515625 -6.921875 L 11.515625 0 L 9.625 0 L 9.625 -6.859375 C 9.625 -7.953125 9.410156 -8.765625 8.984375 -9.296875 C 8.566406 -9.835938 7.9375 -10.109375 7.09375 -10.109375 C 6.070312 -10.109375 5.265625 -9.785156 4.671875 -9.140625 C 4.085938 -8.492188 3.796875 -7.609375 3.796875 -6.484375 L 3.796875 0 L 1.90625 0 L 1.90625 -15.9375 L 3.796875 -15.9375 L 3.796875 -9.6875 C 4.253906 -10.382812 4.785156 -10.898438 5.390625 -11.234375 C 6.003906 -11.578125 6.710938 -11.75 7.515625 -11.75 C 8.828125 -11.75 9.820312 -11.335938 10.5 -10.515625 C 11.175781 -9.703125 11.515625 -8.503906 11.515625 -6.921875 Z M 11.515625 -6.921875 "/></g></g><g transform="translate(474.943311, 269.714568)"><g><path d="M 7.1875 -5.765625 C 5.664062 -5.765625 4.609375 -5.585938 4.015625 -5.234375 C 3.429688 -4.890625 3.140625 -4.300781 3.140625 -3.46875 C 3.140625 -2.789062 3.359375 -2.253906 3.796875 -1.859375 C 4.242188 -1.472656 4.847656 -1.28125 5.609375 -1.28125 C 6.648438 -1.28125 7.484375 -1.648438 8.109375 -2.390625 C 8.742188 -3.128906 9.0625 -4.113281 9.0625 -5.34375 L 9.0625 -5.765625 Z M 10.953125 -6.546875 L 10.953125 0 L 9.0625 0 L 9.0625 -1.734375 C 8.632812 -1.046875 8.097656 -0.535156 7.453125 -0.203125 C 6.816406 0.128906 6.035156 0.296875 5.109375 0.296875 C 3.929688 0.296875 2.992188 -0.03125 2.296875 -0.6875 C 1.609375 -1.351562 1.265625 -2.238281 1.265625 -3.34375 C 1.265625 -4.632812 1.695312 -5.609375 2.5625 -6.265625 C 3.425781 -6.921875 4.710938 -7.25 6.421875 -7.25 L 9.0625 -7.25 L 9.0625 -7.421875 C 9.0625 -8.296875 8.773438 -8.96875 8.203125 -9.4375 C 7.640625 -9.914062 6.84375 -10.15625 5.8125 -10.15625 C 5.15625 -10.15625 4.515625 -10.078125 3.890625 -9.921875 C 3.273438 -9.765625 2.675781 -9.53125 2.09375 -9.21875 L 2.09375 -10.953125 C 2.789062 -11.222656 3.460938 -11.421875 4.109375 -11.546875 C 4.753906 -11.679688 5.382812 -11.75 6 -11.75 C 7.664062 -11.75 8.90625 -11.316406 9.71875 -10.453125 C 10.539062 -9.597656 10.953125 -8.296875 10.953125 -6.546875 Z M 10.953125 -6.546875 "/></g></g><g transform="translate(487.79836, 269.714568)"><g><path d="M 11.515625 -6.921875 L 11.515625 0 L 9.625 0 L 9.625 -6.859375 C 9.625 -7.953125 9.410156 -8.765625 8.984375 -9.296875 C 8.566406 -9.835938 7.9375 -10.109375 7.09375 -10.109375 C 6.070312 -10.109375 5.265625 -9.785156 4.671875 -9.140625 C 4.085938 -8.492188 3.796875 -7.609375 3.796875 -6.484375 L 3.796875 0 L 1.90625 0 L 1.90625 -11.46875 L 3.796875 -11.46875 L 3.796875 -9.6875 C 4.253906 -10.382812 4.785156 -10.898438 5.390625 -11.234375 C 6.003906 -11.578125 6.710938 -11.75 7.515625 -11.75 C 8.828125 -11.75 9.820312 -11.335938 10.5 -10.515625 C 11.175781 -9.703125 11.515625 -8.503906 11.515625 -6.921875 Z M 11.515625 -6.921875 "/></g></g><g transform="translate(501.09386, 269.714568)"><g><path d="M 11.515625 -6.921875 L 11.515625 0 L 9.625 0 L 9.625 -6.859375 C 9.625 -7.953125 9.410156 -8.765625 8.984375 -9.296875 C 8.566406 -9.835938 7.9375 -10.109375 7.09375 -10.109375 C 6.070312 -10.109375 5.265625 -9.785156 4.671875 -9.140625 C 4.085938 -8.492188 3.796875 -7.609375 3.796875 -6.484375 L 3.796875 0 L 1.90625 0 L 1.90625 -11.46875 L 3.796875 -11.46875 L 3.796875 -9.6875 C 4.253906 -10.382812 4.785156 -10.898438 5.390625 -11.234375 C 6.003906 -11.578125 6.710938 -11.75 7.515625 -11.75 C 8.828125 -11.75 9.820312 -11.335938 10.5 -10.515625 C 11.175781 -9.703125 11.515625 -8.503906 11.515625 -6.921875 Z M 11.515625 -6.921875 "/></g></g><g transform="translate(514.38936, 269.714568)"><g><path d="M 11.796875 -6.203125 L 11.796875 -5.28125 L 3.125 -5.28125 C 3.207031 -3.988281 3.597656 -3 4.296875 -2.3125 C 4.992188 -1.632812 5.96875 -1.296875 7.21875 -1.296875 C 7.945312 -1.296875 8.648438 -1.382812 9.328125 -1.5625 C 10.003906 -1.738281 10.679688 -2.003906 11.359375 -2.359375 L 11.359375 -0.578125 C 10.679688 -0.296875 9.984375 -0.0820312 9.265625 0.0625 C 8.554688 0.21875 7.835938 0.296875 7.109375 0.296875 C 5.273438 0.296875 3.820312 -0.234375 2.75 -1.296875 C 1.6875 -2.367188 1.15625 -3.8125 1.15625 -5.625 C 1.15625 -7.5 1.660156 -8.988281 2.671875 -10.09375 C 3.691406 -11.195312 5.0625 -11.75 6.78125 -11.75 C 8.320312 -11.75 9.539062 -11.25 10.4375 -10.25 C 11.34375 -9.257812 11.796875 -7.910156 11.796875 -6.203125 Z M 9.90625 -6.765625 C 9.894531 -7.796875 9.609375 -8.617188 9.046875 -9.234375 C 8.484375 -9.847656 7.734375 -10.15625 6.796875 -10.15625 C 5.742188 -10.15625 4.898438 -9.859375 4.265625 -9.265625 C 3.640625 -8.671875 3.28125 -7.832031 3.1875 -6.75 Z M 9.90625 -6.765625 "/></g></g><g transform="translate(527.295623, 269.714568)"><g><path d="M 1.984375 -15.9375 L 3.859375 -15.9375 L 3.859375 0 L 1.984375 0 Z M 1.984375 -15.9375 "/></g></g></g><g clip-path="url(#0aad93ec26)"><path fill="#ffffff" d="M 177.421875 265.113281 C 177.421875 272.136719 171.730469 277.828125 164.707031 277.828125 L 106.453125 277.828125 C 99.429688 277.828125 93.738281 272.136719 93.738281 265.113281 L 93.738281 206.859375 C 93.738281 199.835938 99.429688 194.144531 106.453125 194.144531 L 164.707031 194.144531 C 171.730469 194.144531 177.421875 199.835938 177.421875 206.859375 Z M 177.421875 265.113281 " fill-opacity="1" fill-rule="nonzero"/></g><path fill="#ff0000" d="M 165.238281 236.636719 C 165.238281 241.261719 165.238281 246.167969 164.199219 250.660156 C 163.472656 253.8125 160.894531 256.140625 157.789062 256.488281 C 150.433594 257.308594 142.984375 257.3125 135.574219 257.308594 C 128.164062 257.3125 120.71875 257.308594 113.363281 256.488281 C 110.257812 256.140625 107.675781 253.8125 106.953125 250.660156 C 105.921875 246.167969 105.921875 241.261719 105.921875 236.636719 C 105.921875 232.007812 105.929688 227.109375 106.964844 222.613281 C 107.6875 219.460938 110.269531 217.132812 113.375 216.789062 C 120.730469 215.964844 128.175781 215.960938 135.589844 215.964844 C 143 215.960938 150.445312 215.964844 157.800781 216.789062 C 160.910156 217.132812 163.488281 219.460938 164.210938 222.613281 C 165.242188 227.109375 165.238281 232.007812 165.238281 236.636719 Z M 165.238281 236.636719 " fill-opacity="1" fill-rule="nonzero"/><path fill="#ffffff" d="M 129.332031 225.59375 L 129.332031 247.773438 L 146.566406 236.683594 Z M 129.332031 225.59375 " fill-opacity="1" fill-rule="nonzero"/></svg>